monomusic.sfdir
StartChar: exclam
Encoding: 33 33 1
Width: 500
Flags: W
HStem: 0 130<195 305> 710 20G<200 300>
VStem: 195 110<0 130 489.667 730> 210 80<215 575.5>
LayerCount: 3
Back
Fore
SplineSet
200 730 m 5xd0
 300 730 l 5
 290 215 l 5
 210 215 l 5
 200 730 l 5xd0
195 0 m 5xe0
 195 130 l 5
 305 130 l 5
 305 0 l 5
 195 0 l 5xe0
EndSplineSet
Layer: 2
Substitution2: "'sups' Superscript lookup 1-1" exclam.sup
EndChar
StartChar: quotedbl
Encoding: 34 34 2
Width: 500
Flags: W
HStem: 500 280<145 205 295 355>
VStem: 145 60<500 598> 295 60<500 598>
LayerCount: 3
Back
Fore
SplineSet
275 780 m 1
 375 780 l 1
 355 500 l 1
 295 500 l 1
 275 780 l 1
125 780 m 1
 225 780 l 1
 205 500 l 1
 145 500 l 1
 125 780 l 1
EndSplineSet
Layer: 2
EndChar
StartChar: numbersign
Encoding: 35 35 3
Width: 500
Flags: W
HStem: 0 21G<85 169.447 243 327.447> 188 72<40 108 199 266 357 425> 488 72<75 146 237 304 395 460> 710 20G<173.529 258 331.529 416>
LayerCount: 3
Back
Fore
SplineSet
40 188 m 1
 40 260 l 1
 117 260 l 1
 146 488 l 1
 75 488 l 1
 75 560 l 1
 155 560 l 1
 176 730 l 1
 258 730 l 1
 237 560 l 1
 313 560 l 1
 334 730 l 1
 416 730 l 1
 395 560 l 1
 460 560 l 1
 460 488 l 1
 386 488 l 1
 357 260 l 1
 425 260 l 1
 425 188 l 1
 348 188 l 1
 325 0 l 1
 243 0 l 1
 266 188 l 1
 190 188 l 1
 167 0 l 1
 85 0 l 1
 108 188 l 1
 40 188 l 1
199 260 m 1
 275 260 l 1
 304 488 l 1
 228 488 l 1
 199 260 l 1
EndSplineSet
Layer: 2
Substitution2: "'sups' Superscript lookup 1-1" numbersign.sup
EndChar
StartChar: dollar
Encoding: 36 36 4
Width: 500
Flags: W
HStem: 16 75<150.921 217> 636 77<185.01 217 293 368.017>
VStem: 75 84<461.725 611.884> 217 76<-85 18.7577 97 311 429 636 710.143 815> 351 84<123.831 278.191>
CounterMasks: 1 38
LayerCount: 3
Back
Fore
SplineSet
293 311 m 1
 293 97 l 1
 332 111 351 147 351 205 c 0
 351 252 332 288 293 311 c 1
293 19 m 1
 293 -85 l 1
 217 -85 l 1
 217 16 l 1
 170 20 125 36 80 65 c 1
 80 160 l 1
 123 122 169 99 217 91 c 1
 217 342 l 1
 129.254913874 378.130329581 75 422.963397717 75 535 c 0
 75 637.256572411 126.829058148 700.977207753 217 713 c 1
 217 815 l 1
 293 815 l 1
 293 713 l 1
 339 708 381 695 420 675 c 1
 420 585 l 1
 385 610 343 628 293 637 c 1
 293 400 l 1
 381.568089782 363.53078656 435 318.365657004 435 205 c 4
 435 96 388 34 293 19 c 1
217 429 m 1
 217 636 l 1
 178 624 159 590 159 535 c 0
 159 486 178 451 217 429 c 1
EndSplineSet
Layer: 2
EndChar
StartChar: percent
Encoding: 37 37 5
Width: 500
Flags: W
HStem: -10 68<303.333 376.667> 242 68<303.333 376.667> 420 68<123.333 196.667> 672 68<123.333 196.667>
VStem: 30 78<500.38 659.62> 210 78<70.3796 229.62 497.694 662.306> 392 78<70.3796 229.62>
LayerCount: 3
Back
Fore
SplineSet
60 260 m 5
 440 550 l 5
 440 470 l 5
 60 180 l 5
 60 260 l 5
30 580 m 4
 30 675 70 740 160 740 c 4
 250 740 290 675 290 580 c 4
 290 485 250 420 160 420 c 4
 70 420 30 485 30 580 c 4
210 150 m 4
 210 245 250 310 340 310 c 4
 430 310 470 245 470 150 c 4
 470 55 430 -10 340 -10 c 4
 250 -10 210 55 210 150 c 4
160 488 m 4
 195 488 212 519 212 580 c 4
 212 641 195 672 160 672 c 4
 125 672 108 641 108 580 c 4
 108 519 125 488 160 488 c 4
340 58 m 4
 375 58 392 89 392 150 c 4
 392 211 375 242 340 242 c 4
 305 242 288 211 288 150 c 4
 288 89 305 58 340 58 c 4
EndSplineSet
Layer: 2
EndChar
StartChar: ampersand
Encoding: 38 38 6
Width: 500
Flags: W
HStem: -10 75<142.795 297.035> 0 21G<394.531 495> 665 75<167.449 287.308>
VStem: 25 85<98.8745 242.808> 62 83<508.975 641.954> 310 80<519.167 642.39> 376 76<190.919 265>
LayerCount: 3
Back
Fore
SplineSet
310 590 m 0x2c
 310 636 276 665 228 665 c 0
 180 665 145 637 145 590 c 0
 145 534 172 498 211 436 c 1
 267 485 310 525 310 590 c 0x2c
  Spiro
    310 590 o
    299.428 629.856 o
    270.556 655.796 o
    228 665 o
    185.185 656.018 o
    155.831 630.3 o
    145 590 o
    153.428 539.011 o
    176.585 490.987 o
    211 436 v
    261.512 483.212 o
    296.803 532.126 o
    0 0 z
  EndSpiro
200 -10 m 0xa2
 91 -10 25 56 25 165 c 0xb2
 25 236 67 310 151 385 c 1
 102 457 62 511 62 590 c 0
 62 681 132 740 225 740 c 0
 318 740 390 681 390 590 c 0xac
 390 493 328 433 253 371 c 1
 371 190 l 1
 376 209.3125 376 247.8125 376 265 c 1
 452 265 l 1
 452 198.710691824 447 151.119496855 423 110 c 1
 495 0 l 1
 408 0 l 1x62
 375 49 l 1
 329 10 271 -10 200 -10 c 0xa2
110 168 m 0
 110 100 147 65 215 65 c 0
 262 65 301 82 332 114 c 1
 194 321 l 1
 138 268 110 217 110 168 c 0
  Spiro
    110 168 o
    122.087 111.12 o
    157.602 76.5695 o
    215 65 o
    259.292 70.5815 o
    298.37 87.0959 o
    332 114 v
    194 321 v
    131 243 o
    0 0 z
  EndSpiro
EndSplineSet
Layer: 2
EndChar
StartChar: quotesingle
Encoding: 39 39 7
Width: 500
Flags: W
HStem: 500 280<220 280>
VStem: 220 60<500 578.4>
LayerCount: 3
Back
Fore
SplineSet
195 780 m 1
 305 780 l 1
 280 500 l 1
 220 500 l 1
 195 780 l 1
EndSplineSet
Layer: 2
EndChar
StartChar: parenleft
Encoding: 40 40 8
Width: 500
Flags: W
VStem: 125 74<145.678 484.322>
LayerCount: 3
Back
Fore
SplineSet
125 315 m 4
 125 498 190 650 319 770 c 5
 395 770 l 5
 264 647 199 496 199 315 c 4
 199 134 264 -17 395 -140 c 5
 319 -140 l 5
 190 -20 125 132 125 315 c 4
EndSplineSet
Layer: 2
EndChar
StartChar: parenright
Encoding: 41 41 9
Width: 500
Flags: W
VStem: 301 74<145.678 484.322>
LayerCount: 3
Back
Fore
SplineSet
375 315 m 0
 375 132 310 -20 181 -140 c 1
 105 -140 l 1
 236 -17 301 134 301 315 c 0
 301 496 236 647 105 770 c 1
 181 770 l 1
 310 650 375 498 375 315 c 0
EndSplineSet
Layer: 2
EndChar
StartChar: asterisk
Encoding: 42 42 10
Width: 500
Flags: W
VStem: 217 66<581 750>
LayerCount: 3
Back
Fore
SplineSet
214 750 m 1
 286 750 l 1
 283 581 l 1
 443 636 l 1
 465 568 l 1
 304 518 l 1
 405 383 l 1
 347 341 l 1
 250 479 l 1
 153 341 l 1
 95 383 l 1
 196 518 l 1
 35 568 l 1
 57 636 l 1
 217 581 l 1
 214 750 l 1
EndSplineSet
Layer: 2
EndChar
StartChar: plus
Encoding: 43 43 11
Width: 500
Flags: W
HStem: 269 72<60 209 291 440>
VStem: 209 82<55 269 341 555>
LayerCount: 3
Back
Fore
SplineSet
291 555 m 5
 291 341 l 5
 440 341 l 5
 440 269 l 5
 291 269 l 5
 291 55 l 5
 209 55 l 5
 209 269 l 5
 60 269 l 5
 60 341 l 5
 209 341 l 5
 209 555 l 5
 291 555 l 5
EndSplineSet
Layer: 2
Substitution2: "'sups' Superscript lookup 1-1" plus.sup
EndChar
StartChar: comma
Encoding: 44 44 12
Width: 500
Flags: W
HStem: -130 280<210 220>
VStem: 150 180
LayerCount: 3
Back
Fore
SplineSet
210 150 m 5
 330 150 l 5
 220 -130 l 5
 150 -130 l 5
 210 150 l 5
EndSplineSet
Layer: 2
EndChar
StartChar: hyphen
Encoding: 45 45 13
Width: 500
Flags: W
HStem: 269 72<100 400>
VStem: 100 300<269 341>
LayerCount: 3
Back
Fore
SplineSet
100 269 m 5
 100 341 l 5
 400 341 l 5
 400 269 l 5
 100 269 l 5
EndSplineSet
Layer: 2
Substitution2: "'sups' Superscript lookup 1-1" minus.sup
EndChar
StartChar: period
Encoding: 46 46 14
Width: 500
Flags: W
HStem: 0 150<185 315>
VStem: 185 130<0 150>
LayerCount: 3
Back
Fore
SplineSet
185 0 m 5
 185 150 l 5
 315 150 l 5
 315 0 l 5
 185 0 l 5
EndSplineSet
Layer: 2
EndChar
StartChar: slash
Encoding: 47 47 15
Width: 500
Flags: W
HStem: 710 20G<371.377 452>
LayerCount: 3
Back
Fore
SplineSet
452 730 m 5
 120 -40 l 5
 48 -40 l 5
 380 730 l 5
 452 730 l 5
EndSplineSet
Layer: 2
EndChar
StartChar: zero
Encoding: 48 48 16
Width: 500
Flags: W
HStem: -10 70<196.919 303.081> 670 70<196.919 303.081>
VStem: 60 78<147.128 582.872> 362 78<147.128 582.872>
LayerCount: 3
Back
Fore
SplineSet
440 365 m 0
 440 304 440 173 400 85 c 0
 373 27 327 -10 250 -10 c 0
 173 -10 127 27 100 85 c 0
 60 173 60 304 60 365 c 0
 60 426 60 557 100 645 c 0
 127 703 173 740 250 740 c 0
 327 740 373 703 400 645 c 0
 440 557 440 426 440 365 c 0
362 365 m 0
 362 411 362 485 346 561 c 0
 333 623 304 670 250 670 c 0
 196 670 167 623 154 561 c 0
 138 485 138 411 138 365 c 0
 138 319 138 245 154 169 c 0
 167 107 196 60 250 60 c 0
 304 60 333 107 346 169 c 0
 362 245 362 319 362 365 c 0
EndSplineSet
Layer: 2
SplineSet
250 740 m 4
 282 740 309 734 332 722 c 4
 355 710 374 690 391 662 c 4
 408 634 420 595 428 546 c 4
 436 497 440 437 440 365 c 4
 440 293 436 233 428 184 c 4
 420 135 408 96 391 68 c 4
 374 40 355 20 332 8 c 4
 309 -4 282 -10 250 -10 c 4
 218 -10 191 -4 168 8 c 4
 145 20 126 40 109 68 c 4
 92 96 80 135 72 184 c 4
 64 233 60 293 60 365 c 4
 60 437 64 497 72 546 c 4
 80 595 92 634 109 662 c 4
 126 690 145 710 168 722 c 4
 191 734 218 740 250 740 c 4
142 249 m 5
 338 588 l 5
 321 643 291 670 250 670 c 4
 226 670 206 661 190 644 c 4
 174 627 161 595 152 549 c 4
 143 503 138 442 138 365 c 4
 138 332 139 293 142 249 c 5
158 155 m 5
 175 92 206 60 250 60 c 4
 274 60 294 69 310 86 c 4
 326 103 339 135 348 181 c 4
 357 227 362 288 362 365 c 4
 362 417 360 461 356 498 c 5
 158 155 l 5
EndSplineSet
Substitution2: "'sups' Superscript lookup 0-1" zero.sup
EndChar
StartChar: one
Encoding: 49 49 17
Width: 500
Flags: W
HStem: 0 21G<258 340> 710 20G<224.667 340>
VStem: 258 82<0 645>
LayerCount: 3
Back
Fore
SplineSet
258 0 m 5
 258 645 l 5
 256 646 l 5
 83 545 l 5
 83 625 l 5
 258 730 l 5
 340 730 l 5
 340 0 l 5
 258 0 l 5
EndSplineSet
Layer: 2
Substitution2: "'sups' Superscript lookup 0-1" one.sup
EndChar
StartChar: two
Encoding: 50 50 18
Width: 500
Flags: W
HStem: 0 72<175 420> 666 74<162.115 300.184>
VStem: 80 340<0 72 588 672.159> 331 84<441.12 633.127>
LayerCount: 3
Back
Fore
SplineSet
250 740 m 4xe0
 368.743011021 740 415 672.159001342 415 550 c 4xd0
 415 396.311038884 301.027249661 236.020143002 175 74 c 5
 175 72 l 5
 420 72 l 5
 420 0 l 5
 80 0 l 5
 80 72 l 5xe0
 247 274.213675214 331 433 331 550 c 4xd0
 331 627 300 666 238 666 c 4
 181.984216606 666 113.952475399 619.123102449 80 588 c 5
 80 675 l 5
 130 718 187 740 250 740 c 4xe0
EndSplineSet
Layer: 2
Substitution2: "'sups' Superscript lookup 0-1" two.sup
EndChar
StartChar: three
Encoding: 51 51 19
Width: 500
Flags: W
HStem: -10 74<130.924 300.783> 355 72<245 313.689> 658 72<80 330>
VStem: 346 84<112.179 321.173>
LayerCount: 3
Back
Fore
SplineSet
220 64 m 4
 312 64 346 114 346 210 c 4
 346 320 328 355 220 355 c 6
 150 355 l 5
 150 427 l 5
 330 656 l 5
 330 658 l 5
 80 658 l 5
 80 730 l 5
 425 730 l 5
 425 658 l 5
 245 429 l 5
 245 427 l 5
 384 427 430 357 430 210 c 4
 430 63 365 -10 235 -10 c 4
 186 -10 138 0 90 20 c 5
 90 105 l 5
 141 78 185 64 220 64 c 4
EndSplineSet
Layer: 2
Substitution2: "'sups' Superscript lookup 0-1" three.sup
EndChar
StartChar: four
Encoding: 52 52 20
Width: 500
Flags: W
HStem: 0 21G<293 375> 175 72<116 293 375 460> 710 20G<272.725 375>
VStem: 293 82<0 175 247 590>
LayerCount: 3
Back
Fore
SplineSet
293 590 m 5
 291 590 l 5
 116 249 l 5
 116 247 l 5
 293 247 l 5
 293 590 l 5
293 175 m 5
 40 175 l 5
 40 257 l 5
 283 730 l 5
 375 730 l 5
 375 247 l 5
 460 247 l 5
 460 175 l 5
 375 175 l 5
 375 0 l 5
 293 0 l 5
 293 175 l 5
EndSplineSet
Layer: 2
Substitution2: "'sups' Superscript lookup 0-1" four.sup
EndChar
StartChar: five
Encoding: 53 53 21
Width: 500
Flags: W
HStem: -10 74<133.024 298.047> 386 74<192.666 308.048> 658 72<187 410>
VStem: 105 82<460.5 658> 346 84<119.317 341.505>
LayerCount: 3
Back
Fore
SplineSet
180 430 m 5
 182 430 l 5
 204 450 233 460 270 460 c 4
 377 460 430 383 430 230 c 4
 430 147 413 86 380 48 c 4
 347 10 299 -10 235 -10 c 4
 186 -10 137 0 90 20 c 5
 90 107 l 5
 140 78 187 64 230 64 c 4
 307 64 346 119 346 230 c 4
 346 334 314 386 250 386 c 4
 219 386 193 372 170 345 c 5
 95 345 l 5
 105 730 l 5
 410 730 l 5
 410 658 l 5
 187 658 l 5
 180 430 l 5
EndSplineSet
Layer: 2
Substitution2: "'sups' Superscript lookup 0-1" five.sup
EndChar
StartChar: six
Encoding: 54 54 22
Width: 500
Flags: W
HStem: -10 72<196.454 319.963> 415 70<196.768 320.109> 668 72<218.497 393.508>
VStem: 70 84<117.287 553.728> 358 82<105.306 372.511>
LayerCount: 3
Back
Fore
SplineSet
285 740 m 4
 326 740 364 733 400 720 c 5
 400 643 l 5
 367 660 332 668 295 668 c 4
 248 668 215 652 194 620 c 4
 173 588 160 526 155 435 c 5
 157 435 l 5
 190 468 228 485 270 485 c 4
 328 485 370 466 398 429 c 4
 426 392 440 330 440 245 c 4
 440 156 425 90 394 50 c 4
 363 10 316 -10 255 -10 c 4
 212 -10 177 -1 151 18 c 4
 125 37 105 71 91 120 c 4
 77 169 70 235 70 320 c 4
 70 425 79 509 96 572 c 4
 113 635 136 678 166 703 c 4
 196 728 236 740 285 740 c 4
255 62 m 4
 291 62 318 75 334 101 c 4
 350 127 358 175 358 245 c 4
 358 308 350 352 334 377 c 4
 318 402 294 415 260 415 c 4
 189 415 154 362 154 255 c 4
 154 184 162 134 179 105 c 4
 196 76 221 62 255 62 c 4
EndSplineSet
Layer: 2
Substitution2: "'sups' Superscript lookup 0-1" six.sup
EndChar
StartChar: seven
Encoding: 55 55 23
Width: 500
Flags: W
HStem: 0 21G<127 242.5> 658 72<75 345>
VStem: 127 88<0 78.3218>
LayerCount: 3
Back
Fore
SplineSet
345 656 m 1
 345 658 l 1
 75 658 l 1
 75 730 l 1
 425 730 l 1
 425 658 l 1
 340 461 270 241 215 0 c 1
 127 0 l 1
 183 235 256 454 345 656 c 1
EndSplineSet
Layer: 2
Substitution2: "'sups' Superscript lookup 0-1" seven.sup
EndChar
StartChar: eight
Encoding: 56 56 24
Width: 500
Flags: W
HStem: -10 70<177.596 325.27> 670 70<182.037 321.512>
VStem: 50 76<112.273 283.868> 65 80<483.057 632.478> 359 76<482.743 631.22> 370 80<108.069 278.812>
LayerCount: 3
Back
Fore
SplineSet
359 565 m 4xd8
 359 627 317 670 255 670 c 4
 187 670 145 632 145 565 c 4
 145 492 190 434 250 420 c 5
 314 436 359 487 359 565 c 4xd8
450 190 m 4xc4
 450 61 379 -10 250 -10 c 4
 121 -10 50 61 50 190 c 4xe4
 50 287 103 354 175 384 c 5
 175 386 l 5
 119 412 65 485 65 565 c 4
 65 677 137 740 250 740 c 4
 362 740 435 676 435 565 c 4xd8
 435 485 383 417 325 391 c 5
 325 389 l 5
 399 360 450 290 450 190 c 4xc4
126 190 m 4
 126 109 175 60 255 60 c 4
 330 60 370 112 370 190 c 4
 370 277 328 330 245 350 c 5
 167 329 126 285 126 190 c 4
EndSplineSet
Layer: 2
Substitution2: "'sups' Superscript lookup 0-1" eight.sup
EndChar
StartChar: nine
Encoding: 57 57 25
Width: 500
Flags: W
HStem: -10 74<110.011 282.112> 245 70<182.714 301.466> 668 72<180.395 303.809>
VStem: 60 82<362.135 623.816> 346 84<176.272 616.231>
LayerCount: 3
Back
Fore
SplineSet
245 740 m 4
 346.851814767 740 386.547567001 698.593598765 410 612 c 4
 423 564 430 496 430 410 c 4
 430 305 421 221 404 158 c 4
 375.485707911 52.3293881414 333.350755823 -10 215 -10 c 4
 174 -10 136 -3 100 10 c 5
 100 90 l 5
 135 73 170 64 205 64 c 4
 323.915444844 64 333.360662489 156.964057297 345 295 c 5
 343 295 l 5
 310 262 272 245 230 245 c 4
 97.8169472033 245 60 349.741309509 60 495 c 4
 60 643.929489616 106.76159379 740 245 740 c 4
245 668 m 4
 155.387734213 668 142 595.034781583 142 495 c 4
 142 396.548619627 157.432015013 315 240 315 c 4
 321.802427055 315 346 391.410949712 346 485 c 4
 346 583.224209152 330.847625113 668 245 668 c 4
EndSplineSet
Layer: 2
Substitution2: "'sups' Superscript lookup 0-1" nine.sup
EndChar
StartChar: colon
Encoding: 58 58 26
Width: 500
Flags: W
HStem: 0 150<190 310> 390 150<190 310>
VStem: 190 120<0 150 390 540>
LayerCount: 3
Back
Fore
SplineSet
190 390 m 1
 190 540 l 1
 310 540 l 1
 310 390 l 1
 190 390 l 1
190 0 m 1
 190 150 l 1
 310 150 l 1
 310 0 l 1
 190 0 l 1
EndSplineSet
Layer: 2
EndChar
StartChar: semicolon
Encoding: 59 59 27
Width: 500
Flags: W
HStem: 390 150<200 320>
VStem: 200 120<132.182 150 390 540>
LayerCount: 3
Back
Fore
SplineSet
200 150 m 5
 320 150 l 5
 210 -130 l 5
 140 -130 l 5
 200 150 l 5
200 390 m 1
 200 540 l 1
 320 540 l 1
 320 390 l 1
 200 390 l 1
EndSplineSet
Layer: 2
EndChar
StartChar: less
Encoding: 60 60 28
Width: 500
Flags: W
LayerCount: 3
Back
Fore
SplineSet
435 510 m 1
 105 306 l 1
 105 304 l 1
 435 100 l 1
 435 20 l 1
 55 265 l 1
 55 345 l 1
 435 590 l 1
 435 510 l 1
EndSplineSet
Layer: 2
EndChar
StartChar: equal
Encoding: 61 61 29
Width: 500
Flags: W
HStem: 165 72<60 440> 373 72<60 440>
LayerCount: 3
Back
Fore
SplineSet
60 373 m 1
 60 445 l 1
 440 445 l 1
 440 373 l 1
 60 373 l 1
60 165 m 1
 60 237 l 1
 440 237 l 1
 440 165 l 1
 60 165 l 1
EndSplineSet
Layer: 2
EndChar
StartChar: greater
Encoding: 62 62 30
Width: 500
Flags: W
LayerCount: 3
Back
Fore
SplineSet
65 510 m 1
 65 590 l 1
 445 345 l 1
 445 265 l 1
 65 20 l 1
 65 100 l 1
 395 304 l 1
 395 306 l 1
 65 510 l 1
EndSplineSet
Layer: 2
EndChar
StartChar: question
Encoding: 63 63 31
Width: 500
Flags: W
HStem: 0 130<180 290> 664 76<136.34 330.083>
VStem: 180 110<0 130> 195 80<215 314.669> 361 84<501.615 635.119>
LayerCount: 3
Back
Fore
SplineSet
445 580 m 4xd8
 445 494.589233429 401.62287614 447.194909215 360 399 c 4
 316.602819434 348.750633029 275 312.001302727 275 215 c 5
 195 215 l 5
 195 330.521116309 239.828222789 383.431750637 291 441 c 4
 325.249740673 479.530958257 361 514.370560442 361 580 c 4
 361 641.103388449 312.413565255 664 245 664 c 4
 188 664 128 645.31147541 65 607 c 5
 65 695 l 5
 127 725 190 740 255 740 c 4
 368.326304014 740 445 688.914908988 445 580 c 4xd8
180 0 m 5xe8
 180 130 l 5
 290 130 l 5
 290 0 l 5
 180 0 l 5xe8
EndSplineSet
Layer: 2
Substitution2: "'sups' Superscript lookup 1-1" question.sup
EndChar
StartChar: at
Encoding: 64 64 32
Width: 500
Flags: W
HStem: -10 72<201.343 373.208> 150 70<266.656 364.138> 510 70<264.508 358.225> 668 72<202.748 342.974>
VStem: 35 80<177.554 549.785> 165 78<245.799 487.939> 375 80<230.857 494.204 555 633.52>
LayerCount: 3
Back
Fore
SplineSet
375 425 m 2
 375 471.534580604 358.026974557 510 315 510 c 0
 248.213416674 510 243 450.97621934 243 365 c 0
 243 283.043293869 251.614491754 220 315 220 c 0
 344 220 364 233 375 258 c 1
 375 425 l 2
275 740 m 0
 396.761345271 740 455 666.084088933 455 540 c 2
 455 215 l 1
 412 172 365 150 315 150 c 0
 198.066557605 150 165 232.330547123 165 365 c 0
 165 508 212 580 305 580 c 0
 330 580 355 572 378 555 c 1
 380 555 l 1
 380 560 l 2
 380 623.168204684 341.918979856 668 280 668 c 0
 143.969391674 668 115 532.241645222 115 365 c 0
 115 192.896194589 141.424960681 62 280 62 c 0
 321 62 363 75 405 100 c 1
 405 20 l 1
 366 0 322 -10 275 -10 c 0
 84.4986420663 -10 35 141.954155795 35 365 c 0
 35 580.67577078 90.1541062919 740 275 740 c 0
EndSplineSet
Layer: 2
EndChar
StartChar: A
Encoding: 65 65 33
Width: 500
Flags: W
HStem: 0 21G<20 106.381 389.619 480> 210 70<164 332> 710 20G<195.068 304.932>
AnchorPoint: "ogonoek" 480 0 basechar 0
AnchorPoint: "top" 250 730 basechar 0
LayerCount: 3
Back
Fore
SplineSet
249 660 m 5
 247 660 l 5
 164 280 l 5
 332 280 l 5
 249 660 l 5
348 210 m 5
 148 210 l 5
 102 0 l 5
 20 0 l 5
 200 730 l 5
 300 730 l 5
 480 0 l 5
 394 0 l 5
 348 210 l 5
EndSplineSet
Layer: 2
LCarets2: 2 0 0
EndChar
StartChar: B
Encoding: 66 66 34
Width: 500
Flags: W
HStem: -10 70<158.419 322.199> 360 70<157 306.114> 670 70<158.208 304.867>
VStem: 75 82<63.3433 360 430 667.777> 355 80<476.335 622.089> 373 82<117.543 302.796>
LayerCount: 3
Back
Fore
SplineSet
355 550 m 0xf8
 355 629.729456432 299.320866132 670 217 670 c 0
 193 670 173 667.75 157 664 c 1
 157 430 l 1
 202 430 l 2
 296.307138331 430 355 460.901454384 355 550 c 0xf8
157 360 m 1
 157 66 l 1
 182 62.25 212 60 247 60 c 0
 331 60 373 113 373 220 c 0xf4
 373 313 319 360 212 360 c 2
 157 360 l 1
320 399 m 1
 397.642329678 385.064197237 455 302.597016329 455 210 c 0xf4
 455 63 380 -10 230 -10 c 0
 177 -10 125 -4.33333333333 75 7 c 5
 75 722 l 1
 125 734 177 740 230 740 c 0
 367 740 435 680 435 560 c 0xf8
 435 476.381828935 388.312570021 418.078142505 320 401 c 1
 320 399 l 1
EndSplineSet
Layer: 2
EndChar
StartChar: C
Encoding: 67 67 35
Width: 500
Flags: W
HStem: -10 72<222.606 393.208> 668 72<223.934 397.626>
VStem: 55 80<185.487 541.571>
AnchorPoint: "bottom" 296 0 basechar 0
AnchorPoint: "top" 280 730 basechar 0
LayerCount: 3
Back
Fore
SplineSet
55 365 m 4
 55 580.67577078 108.154106292 740 295 740 c 4
 339 740 381 730 420 710 c 5
 420 635 l 5
 380 657 340 668 300 668 c 4
 190 668 135 567 135 365 c 4
 135 197.661715751 167.55600887 62 300 62 c 4
 341 62 383 75 425 100 c 5
 425 20 l 5
 386 0 342 -10 295 -10 c 4
 104.498642066 -10 55 141.954155795 55 365 c 4
EndSplineSet
Layer: 2
EndChar
StartChar: D
Encoding: 68 68 36
Width: 500
Flags: W
HStem: -10 72<147.712 300.329> 668 72<147.712 291.47>
VStem: 65 82<63.7205 666.28> 383 82<176.697 551.785>
LayerCount: 3
Back
Fore
SplineSet
383 365 m 4
 383 477 369 555 340 600 c 4
 311 645 265 668 202 668 c 4
 180 668 162 666 147 663 c 5
 147 67 l 5
 162 64 180 62 202 62 c 4
 300 62 337 97 362 178 c 4
 376 223 383 285 383 365 c 4
465 365 m 4
 465 227 444 130 402 74 c 4
 360 18 293 -10 202 -10 c 4
 155 -10 110 -4 65 7 c 5
 65 723 l 5
 110 734 155 740 202 740 c 4
 293 740 360 711 402 654 c 4
 444 597 465 501 465 365 c 4
EndSplineSet
Layer: 2
EndChar
StartChar: E
Encoding: 69 69 37
Width: 500
Flags: W
HStem: 0 72<162 420> 360 70<162 410> 658 72<162 420>
VStem: 80 82<72 360 430 658>
AnchorPoint: "ogonoek" 420 0 basechar 0
AnchorPoint: "top" 250 730 basechar 0
LayerCount: 3
Back
Fore
SplineSet
162 658 m 1
 162 430 l 1
 410 430 l 1
 410 360 l 1
 162 360 l 1
 162 72 l 1
 420 72 l 1
 420 0 l 1
 80 0 l 1
 80 730 l 1
 420 730 l 5
 420 658 l 1
 162 658 l 1
EndSplineSet
Layer: 2
EndChar
StartChar: F
Encoding: 70 70 38
Width: 500
Flags: W
HStem: 0 21G<90 172> 360 70<172 410> 658 72<172 420>
VStem: 90 82<0 360 430 658>
LayerCount: 3
Back
Fore
SplineSet
172 360 m 1
 172 0 l 1
 90 0 l 1
 90 730 l 1
 420 730 l 1
 420 658 l 1
 172 658 l 1
 172 430 l 1
 410 430 l 1
 410 360 l 1
 172 360 l 1
EndSplineSet
Layer: 2
EndChar
StartChar: G
Encoding: 71 71 39
Width: 500
Flags: W
HStem: -10 72<208.416 367.545> 360 70<215 370> 668 72<213.617 404.9>
VStem: 40 78<186.252 542.704> 370 80<74.5473 360>
AnchorPoint: "bottom" 281 0 basechar 0
AnchorPoint: "top" 280 730 basechar 0
LayerCount: 3
Back
Fore
SplineSet
370 85 m 1
 370 360 l 1
 215 360 l 1
 215 430 l 1
 450 430 l 1
 450 30 l 1
 397 3 340 -10 280 -10 c 0
 201 -10 142 20 101 79 c 0
 60 138 40 234 40 365 c 0
 40 496 62 590 104 650 c 0
 146 710 210 740 295 740 c 0
 334 740 378 732 425 715 c 1
 425 638 l 1
 381 658 338 668 295 668 c 0
 237 668 193 644 163 596 c 0
 133 548 118 471 118 365 c 0
 118 163 174 62 285 62 c 0
 315 62 343 70 370 85 c 1
EndSplineSet
Layer: 2
EndChar
StartChar: H
Encoding: 72 72 40
Width: 500
Flags: W
HStem: 0 21G<60 140 356 440> 360 72<140 356> 710 20G<60 140 356 440>
VStem: 60 80<0 360 432 730> 356 84<0 360 432 730>
AnchorPoint: "top" 250 730 basechar 0
LayerCount: 3
Back
Fore
SplineSet
140 730 m 1
 140 432 l 1
 356 432 l 1
 356 730 l 1
 440 730 l 1
 440 0 l 1
 356 0 l 1
 356 360 l 1
 140 360 l 1
 140 0 l 1
 60 0 l 1
 60 730 l 1
 140 730 l 1
EndSplineSet
Layer: 2
EndChar
StartChar: I
Encoding: 73 73 41
Width: 500
Flags: W
HStem: 0 70<90 208 292 410> 660 70<90 208 292 410>
VStem: 208 84<70 660>
AnchorPoint: "ogonoek" 410 0 basechar 0
AnchorPoint: "top" 250 730 basechar 0
LayerCount: 3
Back
Fore
SplineSet
410 0 m 1
 90 0 l 1
 90 70 l 1
 208 70 l 1
 208 660 l 1
 90 660 l 1
 90 730 l 1
 410 730 l 1
 410 660 l 1
 292 660 l 1
 292 70 l 1
 410 70 l 1
 410 0 l 1
EndSplineSet
Layer: 2
EndChar
StartChar: J
Encoding: 74 74 42
Width: 500
Flags: W
HStem: -10 72<112.031 279.768> 660 70<150 315>
VStem: 315 85<97.6132 660>
AnchorPoint: "top" 250 730 basechar 0
LayerCount: 3
Back
Fore
SplineSet
210 62 m 0
 288.447900263 62 315 108.051577346 315 192 c 2
 315 660 l 1
 150 660 l 1
 150 730 l 1
 400 730 l 1
 400 200 l 2
 400 45.9229216542 350.883588741 -10 210 -10 c 0
 155 -10 105 0 60 20 c 1
 60 105 l 1
 89.3201379787 89.7796195744 166.211112518 62 210 62 c 0
EndSplineSet
Layer: 2
EndChar
StartChar: K
Encoding: 75 75 43
Width: 500
Flags: W
HStem: 0 21G<75 157 358.278 465> 710 20G<75 157 352.515 460>
VStem: 75 82<0 360 400 730>
AnchorPoint: "bottom" 250 0 basechar 0
AnchorPoint: "top" 250 730 basechar 0
LayerCount: 3
Back
Fore
SplineSet
157 400 m 1
 159 400 l 1
 365 730 l 1
 460 730 l 1
 235 380 l 1
 465 0 l 1
 370 0 l 1
 159 360 l 1
 157 360 l 1
 157 0 l 1
 75 0 l 1
 75 730 l 1
 157 730 l 1
 157 400 l 1
EndSplineSet
Layer: 2
EndChar
StartChar: L
Encoding: 76 76 44
Width: 500
Flags: W
HStem: 0 72<182 420> 710 20G<100 182>
VStem: 100 82<72 730>
AnchorPoint: "bottom" 250 0 basechar 0
LayerCount: 3
Back
Fore
SplineSet
182 730 m 1
 182 72 l 1
 420 72 l 1
 420 0 l 1
 100 0 l 1
 100 730 l 1
 182 730 l 1
EndSplineSet
Layer: 2
EndChar
StartChar: M
Encoding: 77 77 45
Width: 500
Flags: HW
HStem: 0 21G<40 118 378 460> 710 20G<40 137.289 366.711 460>
VStem: 40 78<0 540> 378 82<0 540 704.8 730>
LayerCount: 3
Back
Fore
SplineSet
378 540 m 1
 376 540 l 1
 288 327 l 5
 208 327 l 5
 120 540 l 1
 118 540 l 1
 118 0 l 1
 40 0 l 1
 40 730 l 1
 132 730 l 1
 251 427 l 5
 253 427 l 5
 372 730 l 1
 460 730 l 1
 460 0 l 1
 378 0 l 1
 378 540 l 1
EndSplineSet
Layer: 2
Substitution2: "'sups' Superscript lookup 0-1" M.sup
EndChar
StartChar: N
Encoding: 78 78 46
Width: 500
Flags: W
HStem: 0 21G<65 149 347.582 435> 710 20G<65 156.418 355 435>
VStem: 65 84<0 550> 355 80<180 730>
AnchorPoint: "bottom" 250 0 basechar 0
AnchorPoint: "top" 250 730 basechar 0
LayerCount: 3
Back
Fore
SplineSet
151 550 m 1
 149 550 l 1
 149 0 l 1
 65 0 l 1
 65 730 l 1
 149 730 l 1
 353 180 l 1
 355 180 l 1
 355 730 l 1
 435 730 l 1
 435 0 l 1
 355 0 l 1
 151 550 l 1
EndSplineSet
Layer: 2
EndChar
StartChar: O
Encoding: 79 79 47
Width: 500
Flags: W
HStem: -10 72<187.684 312.316> 668 72<187.684 312.316>
VStem: 40 80<154.941 575.059> 380 80<154.941 575.059>
AnchorPoint: "top" 250 730 basechar 0
LayerCount: 3
Back
Fore
SplineSet
250 740 m 4
 429 740 460 569 460 365 c 4
 460 161 429 -10 250 -10 c 4
 71 -10 40 161 40 365 c 4
 40 569 71 740 250 740 c 4
250 668 m 4
 120 668 120 481 120 365 c 4
 120 249 120 62 250 62 c 4
 380 62 380 249 380 365 c 4
 380 481 380 668 250 668 c 4
EndSplineSet
Layer: 2
EndChar
StartChar: P
Encoding: 80 80 48
Width: 500
Flags: W
HStem: 0 21G<75 157> 295 70<157 321.65> 670 70<158.383 319.817>
VStem: 75 82<0 300 367.301 666.407> 375 80<418.019 614.911>
LayerCount: 3
Back
Fore
SplineSet
227 365 m 4
 333.984946153 365 375 410.403427082 375 520 c 4
 375 623.640220909 329.612453344 670 227 670 c 4
 200 670 176 667 157 662 c 5
 157 370 l 5
 177 367 200 365 227 365 c 4
235 740 m 4
 388.326520154 740 455 673.699937288 455 520 c 4
 455 364.128910488 390.269838777 295 237 295 c 4
 214 295 187 297 157 300 c 5
 157 0 l 5
 75 0 l 5
 75 725 l 5
 127 735 180 740 235 740 c 4
EndSplineSet
Layer: 2
EndChar
StartChar: Q
Encoding: 81 81 49
Width: 500
Flags: W
HStem: -10 72<189.584 312.78> 668 72<187.684 312.316>
VStem: 40 80<154.941 575.059> 380 80<152.683 575.059> 392 88<-150 -93.1094>
LayerCount: 3
Back
Fore
SplineSet
250 668 m 4xf0
 120 668 120 481 120 365 c 4
 120 249 120 62 250 62 c 4
 380 62 380 249 380 365 c 4
 380 481 380 668 250 668 c 4xf0
250 740 m 4
 429 740 460 569 460 365 c 4xf0
 460 213 443 79 360 21 c 5
 360 19 l 5
 418 -11 461 -78 480 -150 c 5
 392 -150 l 5xe8
 367 -67 341 -10 250 -10 c 4
 71 -10 40 161 40 365 c 4
 40 569 71 740 250 740 c 4
EndSplineSet
Layer: 2
EndChar
StartChar: R
Encoding: 82 82 50
Width: 500
Flags: W
HStem: 0 21G<70 152 378.537 470> 320 70<152 283.516> 670 70<153.383 316.111>
VStem: 70 82<0 320 390 667.416> 370 80<442.922 619.782>
AnchorPoint: "bottom" 250 0 basechar 0
AnchorPoint: "top" 250 730 basechar 0
LayerCount: 3
Back
Fore
SplineSet
230 740 m 4
 373 740 450 679 450 540 c 4
 450 445 414 380 341 347 c 5
 341 345 l 5
 362 335 384 291 407 214 c 6
 470 0 l 5
 384 0 l 5
 325 216 l 6
 304 292 287 320 202 320 c 6
 152 320 l 5
 152 0 l 5
 70 0 l 5
 70 723 l 5
 122 734 175 740 230 740 c 4
212 390 m 6
 323 390 370 428 370 540 c 4
 370 627 321 670 222 670 c 4
 195 670 171 668 152 664 c 5
 152 390 l 5
 212 390 l 6
EndSplineSet
Layer: 2
EndChar
StartChar: S
Encoding: 83 83 51
Width: 500
Flags: W
HStem: -10 72<153.859 320.211> 668 72<192.538 359.475>
VStem: 70 82<479.878 626.683> 358 82<100.331 263.226>
AnchorPoint: "bottom" 240 0 basechar 0
AnchorPoint: "top" 250 730 basechar 0
LayerCount: 3
Back
Fore
SplineSet
255 740 m 0
 334.174260707 740 364.753640631 730.480749996 420 700 c 1
 420 610 l 1
 369 649 315 668 260 668 c 0
 196.812588245 668 152 623.200320998 152 560 c 0
 152 487.678688026 187.8853575 447.961201136 245 422 c 0
 364.064633273 368.903609486 440 316.58057858 440 180 c 0
 440 53.5533741841 367.428576167 -10 240 -10 c 0
 179 -10 124 8 75 45 c 1
 75 140 l 1
 128 88 185 62 245 62 c 0
 320 62 358 101 358 180 c 0
 358 265.113148153 313.397293541 303.303693237 245 335 c 0
 142.926385364 380.366050949 70 437.96165108 70 560 c 0
 70 667.635714962 146.590272096 740 255 740 c 0
EndSplineSet
Layer: 2
EndChar
StartChar: T
Encoding: 84 84 52
Width: 500
Flags: W
HStem: 0 21G<209 291> 660 70<55 209 291 445>
VStem: 209 82<0 660>
AnchorPoint: "bottom" 250 0 basechar 0
AnchorPoint: "top" 250 730 basechar 0
LayerCount: 3
Back
Fore
SplineSet
209 0 m 1
 209 660 l 1
 55 660 l 1
 55 730 l 1
 445 730 l 1
 445 660 l 1
 291 660 l 1
 291 0 l 1
 209 0 l 1
EndSplineSet
Layer: 2
EndChar
StartChar: U
Encoding: 85 85 53
Width: 500
Flags: W
HStem: -10 72<183.508 321.128> 710 20G<60 144 360 440>
VStem: 60 84<104.114 730> 360 80<102.419 730>
AnchorPoint: "ogonoek" 316 0 basechar 0
AnchorPoint: "top" 250 730 basechar 0
LayerCount: 3
Back
Fore
SplineSet
440 190 m 6
 440 56.473966168 380.466469545 -10 250 -10 c 4
 119.544410052 -10 60 56.4860530287 60 190 c 6
 60 730 l 5
 144 730 l 5
 144 210 l 6
 144 124.969494567 163.071763363 62 252 62 c 4
 341.896619945 62 360 126.017488214 360 210 c 6
 360 730 l 5
 440 730 l 5
 440 190 l 6
EndSplineSet
Layer: 2
EndChar
StartChar: V
Encoding: 86 86 54
Width: 500
Flags: W
HStem: 0 21G<195.342 304.658> 710 20G<30 120.091 383.909 470>
VStem: 30 86<699.941 730> 388 82<699.941 730>
LayerCount: 3
Back
Fore
SplineSet
253 70 m 1
 388 730 l 1
 470 730 l 1
 300 0 l 1
 200 0 l 1
 30 730 l 1
 116 730 l 1
 251 70 l 1
 253 70 l 1
EndSplineSet
Layer: 2
EndChar
StartChar: W
Encoding: 87 87 55
Width: 500
Flags: W
HStem: 0 21G<53.5 177.947 322.053 446.5> 710 20G<25 108 392 475>
VStem: 25 83<489.998 730> 392 83<484.799 730>
AnchorPoint: "top" 250 730 basechar 0
LayerCount: 3
Back
Fore
SplineSet
209 470 m 1
 291 470 l 1
 371 100 l 1
 373 110 l 1
 388.400390625 312.262295082 392 517.573770492 392 730 c 1
 475 730 l 1
 475 477 458 237 435 0 c 1
 326 0 l 1
 251 380 l 1
 249 380 l 1
 174 0 l 1
 65 0 l 1
 42 237 25 477 25 730 c 1
 108 730 l 1
 108 514.147540984 111.6 305.524590164 127 100 c 1
 129 100 l 1
 209 470 l 1
EndSplineSet
Layer: 2
EndChar
StartChar: X
Encoding: 88 88 56
Width: 500
Flags: W
HStem: 0 21G<50 142.344 352.721 450> 710 20G<52 147.655 357.276 448>
LayerCount: 3
Back
Fore
SplineSet
251 440 m 1
 253 440 l 1
 365 730 l 1
 448 730 l 1
 300 375 l 1
 450 0 l 1
 360 0 l 1
 249 305 l 1
 247 305 l 1
 135 0 l 1
 50 0 l 1
 200 375 l 1
 52 730 l 1
 140 730 l 1
 251 440 l 1
EndSplineSet
Layer: 2
EndChar
StartChar: Y
Encoding: 89 89 57
Width: 500
Flags: W
HStem: 0 21G<209 291> 710 20G<30 127.38 377.563 470>
VStem: 209 82<0 290>
AnchorPoint: "top" 250 730 basechar 0
LayerCount: 3
Back
Fore
SplineSet
251 375 m 1
 253 375 l 1
 385 730 l 1
 470 730 l 1
 291 290 l 1
 291 0 l 1
 209 0 l 1
 209 290 l 1
 30 730 l 1
 120 730 l 1
 251 375 l 1
EndSplineSet
Layer: 2
EndChar
StartChar: Z
Encoding: 90 90 58
Width: 500
Flags: W
HStem: 0 70<165 425> 660 70<75 335>
AnchorPoint: "top" 250 730 basechar 0
LayerCount: 3
Back
Fore
SplineSet
335 658 m 1
 335 660 l 1
 75 660 l 1
 75 730 l 1
 425 730 l 1
 425 660 l 1
 165 72 l 1
 165 70 l 1
 425 70 l 1
 425 0 l 1
 75 0 l 1
 75 70 l 1
 335 658 l 1
EndSplineSet
Layer: 2
EndChar
StartChar: bracketleft
Encoding: 91 91 59
Width: 500
Flags: W
HStem: -140 60<212 390> 710 60<212 390>
VStem: 140 72<-80 710>
LayerCount: 3
Back
Fore
SplineSet
390 710 m 1
 212 710 l 1
 212 -80 l 1
 390 -80 l 1
 390 -140 l 1
 140 -140 l 1
 140 770 l 1
 390 770 l 1
 390 710 l 1
EndSplineSet
Layer: 2
EndChar
StartChar: backslash
Encoding: 92 92 60
Width: 500
Flags: W
HStem: 710 20G<48 128.623>
LayerCount: 3
Back
Fore
SplineSet
48 730 m 1
 120 730 l 1
 452 -40 l 1
 380 -40 l 1
 48 730 l 1
EndSplineSet
Layer: 2
EndChar
StartChar: bracketright
Encoding: 93 93 61
Width: 500
Flags: W
HStem: -140 60<110 288> 710 60<110 288>
VStem: 288 72<-80 710>
LayerCount: 3
Back
Fore
SplineSet
110 710 m 1
 110 770 l 1
 360 770 l 1
 360 -140 l 1
 110 -140 l 1
 110 -80 l 1
 288 -80 l 1
 288 710 l 1
 110 710 l 1
EndSplineSet
Layer: 2
EndChar
StartChar: underscore
Encoding: 95 95 63
Width: 500
Flags: W
HStem: -140 56<50 450>
LayerCount: 3
Back
Fore
SplineSet
50 -140 m 1
 50 -84 l 1
 450 -84 l 1
 450 -140 l 1
 50 -140 l 1
EndSplineSet
Layer: 2
EndChar
StartChar: grave
Encoding: 96 96 64
Width: 500
Flags: W
HStem: 610 163
VStem: 58 229
AnchorPoint: "top" 250 520 mark 0
LayerCount: 3
Back
Fore
SplineSet
58 701 m 5
 102 773 l 5
 287 656 l 5
 260 610 l 5
 58 701 l 5
EndSplineSet
Layer: 2
EndChar
StartChar: a
Encoding: 97 97 65
Width: 500
Flags: W
HStem: -10 67<156.625 283.465> 0 21G<352.467 425> 275 60<190.075 348> 463 67<131.021 323.61>
VStem: 55 75<83.6211 221.695> 348 77<0 75 131.397 275 335 438.419>
AnchorPoint: "ogonoek" 425 0 basechar 0
AnchorPoint: "top" 250 520 basechar 0
LayerCount: 3
Back
Fore
SplineSet
80 495 m 5xbc
 118 512 198 530 250 530 c 4
 376 530 425 492 425 340 c 6
 425 0 l 5
 353 0 l 5x7c
 351 75 l 5
 349 75 l 5
 318 18 268 -10 200 -10 c 4
 111 -10 55 52 55 145 c 4
 55 280 155 335 300 335 c 6
 348 335 l 5
 348 360 l 6
 348 435 324 463 250 463 c 4
 200 463 116 440 80 423 c 5
 80 495 l 5xbc
215 57 m 4xbc
 306 57 348 141 348 240 c 6
 348 275 l 5
 300 275 l 6
 187 275 130 233 130 150 c 4
 130 93 160 57 215 57 c 4xbc
EndSplineSet
Layer: 2
Substitution2: "'sups' Superscript lookup 1-1" a.sup
EndChar
StartChar: b
Encoding: 98 98 66
Width: 500
Flags: W
HStem: -10 75<203.355 319.091> 0 21G<65 139.533> 455 75<200.757 322.299> 710 20G<65 144>
VStem: 65 79<0 75 134.397 387.733 445 730> 376 79<134.966 390.172>
LayerCount: 3
Back
Fore
SplineSet
144 445 m 5x7c
 146 445 l 5
 175 502 219 530 280 530 c 4
 397 530 455 440 455 260 c 4
 455 224 455 -10 280 -10 c 4xbc
 224 -10 178 18 143 75 c 5
 141 75 l 5
 139 0 l 5
 65 0 l 5
 65 730 l 5
 144 730 l 5
 144 445 l 5x7c
376 260 m 4
 376 390 337 455 260 455 c 4
 147 455 144 296 144 265 c 4
 144 228 145 65 260 65 c 4
 347 65 376 158 376 260 c 4
EndSplineSet
Layer: 2
Substitution2: "'sups' Superscript lookup 1-1" b.sup
EndChar
StartChar: c
Encoding: 99 99 67
Width: 500
Flags: W
HStem: -10 69<217.599 382.642> 458 72<214.048 381.755>
VStem: 70 82<135.515 383.844>
AnchorPoint: "bottom" 285 0 basechar 0
AnchorPoint: "top" 280 520 basechar 0
LayerCount: 3
Back
Fore
SplineSet
70 260 m 0
 70 349 88 417 125 462 c 0
 162 507 213 530 280 530 c 0
 321 530 362 522 405 505 c 1
 405 425 l 1
 365 447 325 458 285 458 c 0
 243 458 210 441 187 408 c 0
 164 375 152 325 152 260 c 0
 152 193 164 142 189 109 c 0
 214 76 247 59 290 59 c 0
 329 59 369 71 410 95 c 1
 410 15 l 1
 367 -2 326 -10 285 -10 c 0
 217 -10 164 13 126 58 c 0
 88 103 70 170 70 260 c 0
EndSplineSet
Layer: 2
EndChar
StartChar: d
Encoding: 100 100 68
Width: 500
Flags: W
HStem: -10 75<180.909 296.645> 0 21G<360.467 435> 455 75<177.701 299.243> 710 20G<356 435>
VStem: 45 79<134.966 390.172> 356 79<0 75 134.397 387.733 445 730>
LayerCount: 3
Back
Fore
SplineSet
356 445 m 5xbc
 356 730 l 5
 435 730 l 5
 435 0 l 5
 361 0 l 5x7c
 359 75 l 5
 357 75 l 5
 322 18 276 -10 220 -10 c 4
 45 -10 45 224 45 260 c 4
 45 440 103 530 220 530 c 4
 281 530 325 502 354 445 c 5
 356 445 l 5xbc
124 260 m 4
 124 158 153 65 240 65 c 4xbc
 355 65 356 228 356 265 c 4
 356 296 353 455 240 455 c 4
 163 455 124 390 124 260 c 4
EndSplineSet
Layer: 2
Substitution2: "'sups' Superscript lookup 1-1" d.sup
EndChar
StartChar: e
Encoding: 101 101 69
Width: 500
Flags: W
HStem: -10 69<205.452 386.28> 234 66<146 364> 461 69<192.667 321.842>
VStem: 63 83<129.482 234 300 407.059> 364 79<300 412.714>
AnchorPoint: "ogonoek" 418 15 basechar 0
AnchorPoint: "top" 263 520 basechar 0
LayerCount: 3
Back
Fore
SplineSet
63 260 m 4
 63 425 111 530 263 530 c 4
 403 530 443 424 443 265 c 4
 443 247 442 234 442 234 c 5
 146 234 l 5
 149 118 192 59 283 59 c 4
 324 59 369 71 418 95 c 5
 418 15 l 5
 369 -2 322 -10 278 -10 c 4
 135 -10 63 80 63 260 c 4
146 300 m 5
 364 300 l 5
 363 407 330 461 263 461 c 4
 172 461 151 399 146 300 c 5
EndSplineSet
Layer: 2
EndChar
StartChar: f
Encoding: 102 102 70
Width: 500
Flags: W
HStem: 0 21G<195 274> 431 69<75 195 274 425> 671 69<289.674 423.711>
VStem: 195 79<0 431 500 654.036>
LayerCount: 3
Back
Fore
SplineSet
195 560 m 6
 195 678 226 740 335 740 c 4
 365 740 395 735 425 725 c 5
 425 653 l 5
 400 665 375 671 350 671 c 4
 274 671 274 636 274 520 c 6
 274 500 l 5
 425 500 l 5
 425 431 l 5
 274 431 l 5
 274 0 l 5
 195 0 l 5
 195 431 l 5
 75 431 l 5
 75 500 l 5
 195 500 l 5
 195 560 l 6
EndSplineSet
Layer: 2
EndChar
StartChar: g
Encoding: 103 103 71
Width: 500
Flags: W
HStem: -220 69<126.664 308.654> 0 75<183.027 304.431> 455 75<181.911 300.83> 500 20G<365.467 440>
VStem: 50 79<138.142 392.184> 361 79<-92.25 85 138.543 385.961 445 520>
AnchorPoint: "top" 235 520 basechar 0
LayerCount: 3
Back
Fore
SplineSet
50 260 m 0xdc
 50 440 108 530 225 530 c 0xec
 280 530 326 502 362 445 c 1
 364 445 l 1
 366 520 l 1
 440 520 l 1
 440 15 l 6
 440 -68 424 -128 390 -165 c 4
 356 -202 304 -220 235 -220 c 4
 188 -220 141 -212 95 -195 c 5
 95 -115 l 5
 142 -139 189 -151 235 -151 c 4
 319 -151 361 -96 361 15 c 6
 361 85 l 1
 359 85 l 1
 330 28 286 0 225 0 c 0
 172 0 130 22 98 66 c 0
 66 110 50 175 50 260 c 0xdc
129 260 m 0
 129 199 139 153 160 122 c 0
 181 91 210 75 245 75 c 0
 280 75 308 90 329 120 c 0
 350 150 361 196 361 255 c 2
 361 265 l 2
 361 326 350 373 328 406 c 0
 306 439 279 455 245 455 c 0
 206 455 177 439 158 408 c 0
 139 377 129 328 129 260 c 0
EndSplineSet
Layer: 2
EndChar
StartChar: h
Encoding: 104 104 72
Width: 500
Flags: W
HStem: 0 21G<70 149 363 440> 459 71<214.255 335.804> 710 20G<70 149>
VStem: 70 79<0 378.472 445 730> 363 77<0 430.27>
LayerCount: 3
Back
Fore
SplineSet
151 445 m 5
 174 491 224 530 290 530 c 4
 408 530 440 456 440 324 c 6
 440 0 l 5
 363 0 l 5
 363 282 l 6
 363 413 355 459 270 459 c 4
 215 459 149 400 149 252 c 6
 149 0 l 5
 70 0 l 5
 70 730 l 5
 149 730 l 5
 149 445 l 5
 151 445 l 5
EndSplineSet
Layer: 2
EndChar
StartChar: i
Encoding: 105 105 73
Width: 500
Flags: W
HStem: 0 68<95 234 316 425> 452 68<125 234> 640 120<214 316>
VStem: 214 102<640 760> 234 82<68 452>
AnchorPoint: "ogonoek" 425 0 basechar 0
LayerCount: 3
Back
Fore
SplineSet
316 520 m 1xe8
 316 68 l 1
 425 68 l 1
 425 0 l 1
 95 0 l 1
 95 68 l 1
 234 68 l 1
 234 452 l 1
 125 452 l 1
 125 520 l 1
 316 520 l 1xe8
214 640 m 5xf0
 214 760 l 5
 316 760 l 5
 316 640 l 5
 214 640 l 5xf0
EndSplineSet
Layer: 2
EndChar
StartChar: j
Encoding: 106 106 74
Width: 500
Flags: W
HStem: -220 68<91 226.32> 452 68<130 249> 640 120<229 331>
VStem: 229 102<640 760> 249 82<-128.166 452>
LayerCount: 3
Back
Fore
SplineSet
249 -23 m 6xe8
 249 452 l 5
 130 452 l 5
 130 520 l 5
 331 520 l 5
 331 -23 l 6
 331 -101 328 -147 286 -183 c 4
 248 -216 173 -220 91 -220 c 5
 91 -152 l 5
 165 -152 208 -147 225 -132 c 4
 248 -112 249 -80 249 -23 c 6xe8
229 640 m 1xf0
 229 760 l 1
 331 760 l 1
 331 640 l 1
 229 640 l 1xf0
EndSplineSet
Layer: 2
EndChar
StartChar: k
Encoding: 107 107 75
Width: 500
Flags: W
HStem: 0 21G<80 159 348.715 460> 500 20G<348.308 460> 710 20G<80 159>
VStem: 80 79<0 253 286 730>
AnchorPoint: "bottom" 250 0 basechar 0
LayerCount: 3
Back
Fore
SplineSet
460 520 m 1
 230 270 l 1
 460 0 l 1
 365 0 l 1
 159 253 l 1
 159 0 l 1
 80 0 l 1
 80 730 l 1
 159 730 l 1
 159 286 l 1
 366 520 l 1
 460 520 l 1
EndSplineSet
Layer: 2
EndChar
StartChar: l
Encoding: 108 108 76
Width: 500
Flags: W
HStem: -10 68<288.967 430> 662 68<70 199>
VStem: 199 82<64.0934 662>
AnchorPoint: "bottom" 250 0 basechar 0
AnchorPoint: "top" 245 730 basechar 0
LayerCount: 3
Back
Fore
SplineSet
281 180 m 2
 281 61.2608695652 281 58 355 58 c 0
 387 58 430 63 430 63 c 5
 430 -5 l 1
 430 -5 380 -10 345 -10 c 0
 222 -10 199 14.9555555556 199 150 c 2
 199 662 l 1
 70 662 l 1
 70 730 l 1
 281 730 l 1
 281 180 l 2
EndSplineSet
Layer: 2
EndChar
StartChar: m
Encoding: 109 109 77
Width: 500
Flags: W
HStem: 0 21G<20 99 212 290 403 480> 457 73<135.05 203.652 320.052 392.686> 500 20G<20 90.5714>
VStem: 20 79<0 401.32> 20 72<450 520> 212 78<0 421.835> 403 77<0 450.17>
LayerCount: 3
Back
Fore
SplineSet
403 360 m 5xce
 401.481875167 419.206868474 401.960111149 457 354 457 c 4
 311 457 290 391 290 260 c 6
 290 0 l 5
 212 0 l 5
 212 360 l 5
 210.56190558 416.085682372 211.711499722 457 169 457 c 4
 101.176953496 457 99 267.765539401 99 170 c 6
 99 0 l 5
 20 0 l 5xd6
 20 520 l 5
 90 520 l 5xae
 92 450 l 5
 94 450 l 5
 110.972117659 488.57299468 141.76268143 530 190 530 c 4
 241.112996258 530 259.744788797 495.933458321 274 450 c 5
 276 450 l 5
 302 503 337 530 380 530 c 4
 463.611966977 530 480 475.109718869 480 380 c 6
 480 0 l 5
 403 0 l 5
 403 360 l 5xce
EndSplineSet
Layer: 2
EndChar
StartChar: n
Encoding: 110 110 78
Width: 500
Flags: W
HStem: 0 21G<70 149 363 440> 459 71<214.491 335.804> 500 20G<70 144.533>
VStem: 70 79<0 378.472 445 520> 363 77<0 430.27>
AnchorPoint: "bottom" 255 0 basechar 0
AnchorPoint: "top" 265 520 basechar 0
LayerCount: 3
Back
Fore
SplineSet
148 445 m 1xb8
 170 487 223 530 290 530 c 0
 408 530 440 456 440 324 c 2
 440 0 l 1
 363 0 l 1
 363 282 l 2
 363 413 355 459 270 459 c 0xd8
 215 459 149 400 149 252 c 2
 149 0 l 1
 70 0 l 1
 70 520 l 1
 144 520 l 1
 146 445 l 1
 148 445 l 1xb8
EndSplineSet
Layer: 2
EndChar
StartChar: o
Encoding: 111 111 79
Width: 500
Flags: W
HStem: -10 69<181.261 318.729> 461 69<181.271 318.739>
VStem: 50 82<117.125 402.861> 368 82<117.139 402.875>
AnchorPoint: "top" 250 520 basechar 0
LayerCount: 3
Back
Fore
SplineSet
250 530 m 4
 383 530 450 440 450 260 c 4
 450 80 383 -10 250 -10 c 4
 117 -10 50 80 50 260 c 4
 50 440 117 530 250 530 c 4
250 59 m 4
 351.266608845 59 368 145.762262461 368 260 c 4
 368 374.314323 351.310245612 461 250 461 c 4
 148.733391155 461 132 374.237737539 132 260 c 4
 132 145.685677 148.689754388 59 250 59 c 4
EndSplineSet
Layer: 2
Substitution2: "'sups' Superscript lookup 1-1" o.sup
LCarets2: 1 0
EndChar
StartChar: p
Encoding: 112 112 80
Width: 500
Flags: W
HStem: -210 21G<65 144> -10 75<202.674 319.091> 455 75<201.32 322.299> 500 20G<65 139.533>
VStem: 65 79<-210 75 134.397 387.733 445 520> 376 79<134.966 390.172>
LayerCount: 3
Back
Fore
SplineSet
141 445 m 5xdc
 143 445 l 5
 177 503 221 530 280 530 c 4xec
 397 530 455 440 455 260 c 4
 455 224 455 -10 280 -10 c 4
 225 -10 178 16 146 75 c 5
 144 75 l 5
 144 -210 l 5
 65 -210 l 5
 65 520 l 5
 139 520 l 5
 141 445 l 5xdc
376 260 m 4
 376 390 337 455 260 455 c 4
 147 455 144 296 144 265 c 4
 144 228 145 65 260 65 c 4
 347 65 376 158 376 260 c 4
EndSplineSet
Layer: 2
EndChar
StartChar: q
Encoding: 113 113 81
Width: 500
Flags: W
HStem: -210 21G<356 435> -10 75<180.909 297.326> 455 75<177.701 298.68> 500 20G<360.467 435>
VStem: 45 79<134.966 390.172> 356 79<-210 75 134.397 387.733 445 520>
LayerCount: 3
Back
Fore
SplineSet
359 445 m 5xec
 361 520 l 5
 435 520 l 5xdc
 435 -210 l 5
 356 -210 l 5
 356 75 l 5
 354 75 l 5
 322 16 275 -10 220 -10 c 4
 45 -10 45 224 45 260 c 4
 45 440 103 530 220 530 c 4
 279 530 323 503 357 445 c 5
 359 445 l 5xec
124 260 m 4
 124 158 153 65 240 65 c 4
 355 65 356 228 356 265 c 4
 356 296 353 455 240 455 c 4xec
 163 455 124 390 124 260 c 4
EndSplineSet
Layer: 2
EndChar
StartChar: r
Encoding: 114 114 82
Width: 500
Flags: W
HStem: 0 21G<110 189> 461 69<282.405 428.945> 500 20G<110 186>
VStem: 110 79<0 353.845 420 520>
AnchorPoint: "bottom" 170 0 basechar 0
AnchorPoint: "top" 275 520 basechar 0
LayerCount: 3
Back
Fore
SplineSet
186 520 m 1xb0
 186 420 l 1
 188 420 l 1
 229 493 287 530 360 530 c 0xd0
 385 530 408 527 430 520 c 1xb0
 430 450 l 1
 407 457 383 461 360 461 c 0xd0
 251 461 189 354 189 250 c 6
 189 0 l 1
 110 0 l 1
 110 520 l 1
 186 520 l 1xb0
EndSplineSet
Layer: 2
EndChar
StartChar: s
Encoding: 115 115 83
Width: 500
Flags: W
HStem: -10 67<141.966 325.718> 463 67<179.77 363.648>
VStem: 80 79<335.596 442.137> 351 79<83.0823 192.095>
AnchorPoint: "bottom" 250 0 basechar 0
AnchorPoint: "top" 250 520 basechar 0
LayerCount: 3
Back
Fore
SplineSet
80 390 m 4
 80 485 149 530 250 530 c 4
 306 530 359 518 410 495 c 5
 410 420 l 5
 357 449 306 463 255 463 c 4
 191 463 159 439 159 390 c 4
 159 333 200 317 255 300 c 4
 367 266 430 246 430 135 c 4
 430 35 355 -10 250 -10 c 4
 193 -10 138 3 85 30 c 5
 85 110 l 5
 137 75 189 57 240 57 c 4
 314 57 351 83 351 135 c 4
 351 198 309 210 245 230 c 4
 149 260 80 287 80 390 c 4
EndSplineSet
Layer: 2
Substitution2: "'sups' Superscript lookup 0-1" s.sup
EndChar
StartChar: t
Encoding: 116 116 84
Width: 500
Flags: W
HStem: -10 67<259.713 413.616> 431 69<65 165 244 425>
VStem: 165 79<73.7552 431 500 690>
AnchorPoint: "bottom" 290 0 basechar 0
LayerCount: 3
Back
Fore
SplineSet
315 -10 m 0
 196.535432217 -10 165 28.5307275529 165 150 c 2
 165 431 l 5
 65 431 l 5
 65 500 l 5
 165 500 l 5
 165 690 l 1
 244 690 l 1
 244 500 l 5
 425 500 l 5
 425 431 l 5
 244 431 l 5
 244 160 l 2
 244 88.3152057177 248.894531223 57 325 57 c 0
 358 57 388 63.6666666667 415 74 c 1
 415 5 l 1
 383 -5 350 -10 315 -10 c 0
EndSplineSet
Layer: 2
EndChar
StartChar: u
Encoding: 117 117 85
Width: 500
Flags: W
HStem: -10 71<165.626 285.676> 0 21G<350.467 425> 500 20G<65 142 346 425>
VStem: 65 77<88.0125 520> 346 79<0 75 143.351 520>
AnchorPoint: "ogonoek" 426 0 basechar 0
AnchorPoint: "top" 245 520 basechar 0
LayerCount: 3
Back
Fore
SplineSet
210 -10 m 4xb8
 95.4400532649 -10 65 54.7033339757 65 190 c 6
 65 520 l 5
 142 520 l 5
 142 198 l 6
 142 110.567199719 148.49775368 61 230 61 c 4xb8
 311.400607665 61 346 170.586637714 346 268 c 6
 346 520 l 5
 425 520 l 5
 425 0 l 5
 351 0 l 5x78
 349 75 l 5
 347 75 l 5
 325.063054129 27.361727806 276.281607937 -10 210 -10 c 4xb8
EndSplineSet
Layer: 2
Substitution2: "'sups' Superscript lookup 1-1" u.sup
EndChar
StartChar: v
Encoding: 118 118 86
Width: 500
Flags: W
HStem: 0 21G<189.423 310.577> 500 20G<50 141 363 450>
AnchorPoint: "top" 250 520 basechar 0
LayerCount: 3
Back
Fore
SplineSet
251 60 m 1
 253 60 l 1
 368 520 l 1
 450 520 l 1
 305 0 l 1
 195 0 l 1
 50 520 l 1
 136 520 l 1
 251 60 l 1
EndSplineSet
Layer: 2
EndChar
StartChar: w
Encoding: 119 119 87
Width: 500
Flags: W
VStem: 20 82<275.372 520> 398 82<275.372 520>
AnchorPoint: "top" 250 520 basechar 0
LayerCount: 3
Back
Fore
SplineSet
298 520 m 5
 202 520 l 1
 153 80 l 1
 151 80 l 1
 116.897748643 219.98092559 102.490206244 369.51888706 102 520 c 1
 20 520 l 1
 19.8801604919 345.316138121 57.2014426092 172.015809287 100 0 c 1
 196 0 l 1
 245 440 l 1
 247 440 l 1
 304 0 l 5
 400 0 l 5
 442.798828125 172.015625 480.120117188 345.31640625 480 520 c 5
 398 520 l 5
 397.509765625 369.518554688 383.102539062 219.98046875 349 80 c 5
 347 80 l 5
 298 520 l 5
EndSplineSet
Layer: 2
EndChar
StartChar: x
Encoding: 120 120 88
Width: 500
Flags: W
HStem: 0 21G<55 154.488 341.512 445> 500 20G<55 156.674 347.326 445>
LayerCount: 3
Back
Fore
SplineSet
251 305 m 1
 253 305 l 1
 357 520 l 1
 445 520 l 1
 300 260 l 1
 445 0 l 1
 351 0 l 1
 249 215 l 1
 247 215 l 1
 145 0 l 1
 55 0 l 1
 200 260 l 1
 55 520 l 1
 147 520 l 1
 251 305 l 1
EndSplineSet
Layer: 2
EndChar
StartChar: y
Encoding: 121 121 89
Width: 500
Flags: W
HStem: -210 21G<145 234.493> 500 20G<45 139.3 372.15 465>
AnchorPoint: "top" 250 520 basechar 0
LayerCount: 3
Back
Fore
SplineSet
259 120 m 1
 261 120 l 1
 378 520 l 1
 465 520 l 1
 228 -210 l 5
 145 -210 l 5
 220 10 l 1
 45 520 l 1
 133 520 l 1
 259 120 l 1
EndSplineSet
Layer: 2
EndChar
StartChar: z
Encoding: 122 122 90
Width: 500
Flags: W
HStem: 0 69<172 420> 451 69<80 328>
AnchorPoint: "top" 250 520 basechar 0
LayerCount: 3
Back
Fore
SplineSet
80 520 m 1
 420 520 l 1
 420 451 l 1
 172 71 l 1
 172 69 l 1
 420 69 l 1
 420 0 l 1
 80 0 l 1
 80 69 l 1
 328 449 l 1
 328 451 l 1
 80 451 l 1
 80 520 l 1
EndSplineSet
Layer: 2
EndChar
StartChar: braceleft
Encoding: 123 123 91
Width: 500
Flags: W
HStem: -140 60<295.721 415> 285 60<75 179.819> 710 60<295.721 415>
VStem: 208 72<-63.8174 254.966 375.034 693.817>
CounterMasks: 1 e0
LayerCount: 3
Back
Fore
SplineSet
280 465 m 2
 280 382 254 342 195 316 c 1
 199 314 l 1
 253 289 280 239 280 165 c 2
 280 40 l 2
 280 -61 285 -80 375 -80 c 2
 415 -80 l 1
 415 -140 l 1
 350 -140 l 2
 249 -140 208 -93 208 10 c 2
 208 160 l 2
 208 236 189 285 120 285 c 2
 75 285 l 1
 75 345 l 1
 120 345 l 2
 189 345 208 394 208 470 c 2
 208 620 l 2
 208 723 249 770 350 770 c 2
 415 770 l 1
 415 710 l 1
 375 710 l 6
 285 710 280 691 280 590 c 6
 280 465 l 2
EndSplineSet
Layer: 2
EndChar
StartChar: bar
Encoding: 124 124 92
Width: 500
Flags: W
VStem: 212 76<-260 850>
LayerCount: 3
Back
Fore
SplineSet
212 -260 m 5
 212 850 l 1
 288 850 l 1
 288 -260 l 5
 212 -260 l 5
EndSplineSet
Layer: 2
EndChar
StartChar: braceright
Encoding: 125 125 93
Width: 500
Flags: W
HStem: -140 60<85 204.279> 285 60<320.181 425> 710 60<85 204.279>
VStem: 220 72<-63.8174 254.966 375.034 693.817>
CounterMasks: 1 e0
LayerCount: 3
Back
Fore
SplineSet
220 465 m 6
 220 590 l 6
 220 691 215 710 125 710 c 6
 85 710 l 5
 85 770 l 5
 150 770 l 6
 251 770 292 723 292 620 c 6
 292 470 l 6
 292 394 311 345 380 345 c 6
 425 345 l 5
 425 285 l 5
 380 285 l 6
 311 285 292 236 292 160 c 6
 292 10 l 6
 292 -93 251 -140 150 -140 c 6
 85 -140 l 5
 85 -80 l 5
 125 -80 l 6
 215 -80 220 -61 220 40 c 6
 220 165 l 6
 220 239 247 289 301 314 c 5
 305 316 l 5
 246 342 220 382 220 465 c 6
EndSplineSet
Layer: 2
EndChar
StartChar: asciitilde
Encoding: 126 126 94
Width: 500
Flags: W
HStem: 246 59<290.788 416.635> 329 59<83.3646 210.442>
LayerCount: 3
Back
Fore
SplineSet
50 280 m 5
 50 355 l 5
 78 377 110 388 145 388 c 4
 186 388 227 372 270 340 c 4
 302 317 329 305 350 305 c 4
 367 305 382 308 397 315 c 4
 412 322 429 335 450 354 c 5
 450 279 l 5
 422 257 390 246 355 246 c 4
 314 246 273 262 230 294 c 4
 199 317 172 329 150 329 c 4
 133 329 118 326 103 319 c 4
 88 312 71 299 50 280 c 5
EndSplineSet
Layer: 2
EndChar
StartChar: exclamdown
Encoding: 161 161 321
Width: 500
Flags: W
HStem: -210 21G<200 300> 390 130<195 305>
VStem: 195 110<-210 30.3333 390 520> 210 80<-55.5 305>
LayerCount: 3
Back
Fore
SplineSet
300 -210 m 5xd0
 200 -210 l 5
 210 305 l 5
 290 305 l 5
 300 -210 l 5xd0
305 520 m 5xe0
 305 390 l 5
 195 390 l 5
 195 520 l 5
 305 520 l 5xe0
EndSplineSet
Layer: 2
EndChar
StartChar: yen
Encoding: 165 165 95
Width: 500
Flags: W
HStem: 0 21G<209 291> 140 65<60 209 291 440> 290 65<60 183 317 440> 710 20G<30 127.38 377.563 470>
VStem: 209 82<0 140 205 290>
LayerCount: 3
Back
Fore
SplineSet
251 375 m 1
 253 375 l 1
 385 730 l 1
 470 730 l 1
 317 355 l 1
 440 355 l 1
 440 290 l 1
 291 290 l 1
 291 205 l 1
 440 205 l 1
 440 140 l 1
 291 140 l 1
 291 0 l 1
 209 0 l 1
 209 140 l 1
 60 140 l 1
 60 205 l 1
 209 205 l 1
 209 290 l 1
 60 290 l 1
 60 355 l 1
 183 355 l 1
 30 730 l 1
 120 730 l 1
 251 375 l 1
EndSplineSet
Layer: 2
EndChar
StartChar: dieresis
Encoding: 168 168 121
Width: 500
Flags: W
HStem: 620 100<96 196 304 404>
VStem: 96 100<620 720> 304 100<620 720>
AnchorPoint: "top" 250 520 mark 0
LayerCount: 3
Back
Fore
SplineSet
304 620 m 5
 304 720 l 5
 404 720 l 5
 404 620 l 5
 304 620 l 5
96 620 m 5
 96 720 l 5
 196 720 l 5
 196 620 l 5
 96 620 l 5
EndSplineSet
Layer: 2
EndChar
StartChar: guillemotleft
Encoding: 171 171 363
Width: 500
Flags: W
LayerCount: 3
Back
Fore
SplineSet
448 67 m 5
 370 67 l 5
 226 307 l 5
 370 547 l 5
 448 547 l 5
 304 307 l 5
 448 67 l 5
264.52734375 67 m 5
 186.52734375 67 l 5
 42 307 l 5
 186.52734375 547 l 5
 264.52734375 547 l 5
 120 307 l 5
 264.52734375 67 l 5
EndSplineSet
Layer: 2
EndChar
StartChar: degree
Encoding: 176 176 115
Width: 500
Flags: W
HStem: 492 60<191.031 308.761> 739 60<189.752 310.051>
VStem: 96 60<586.781 704.761> 344 60<586.781 704.761>
LayerCount: 3
Back
Fore
SplineSet
96 646 m 4
 96 688 112 724 142 754 c 4
 172 784 207 799 250 799 c 4
 292 799 328 784 358 754 c 4
 388 724 404 688 404 646 c 4
 404 603 388 567 358 537 c 4
 328 507 292 492 250 492 c 4
 207 492 172 507 142 537 c 4
 112 567 96 603 96 646 c 4
156 646 m 4
 156 620 166 598 184 580 c 4
 202 562 224 552 250 552 c 4
 275 552 298 562 316 580 c 4
 334 598 344 620 344 646 c 4
 344 671 334 694 316 712 c 4
 298 730 275 739 250 739 c 4
 224 739 202 730 184 712 c 4
 166 694 156 671 156 646 c 4
EndSplineSet
Layer: 2
EndChar
StartChar: plusminus
Encoding: 177 177 343
Width: 500
Flags: W
HStem: 129 72<80 420> 379 72<80 209 291 420>
VStem: 209 82<265 379 451 565>
LayerCount: 3
Back
Fore
SplineSet
80 129 m 5
 80 201 l 5
 420 201 l 5
 420 129 l 5
 80 129 l 5
291 565 m 5
 291 451 l 5
 420 451 l 5
 420 379 l 5
 291 379 l 5
 291 265 l 5
 209 265 l 5
 209 379 l 5
 80 379 l 5
 80 451 l 5
 209 451 l 5
 209 565 l 5
 291 565 l 5
EndSplineSet
Layer: 2
EndChar
StartChar: uni00B2
Encoding: 178 178 339
Width: 500
Flags: W
HStem: 240 70<212 382> 709 71<174.171 284.512>
VStem: 297 81<545.121 697.871>
LayerCount: 3
Back
Fore
SplineSet
113 729 m 5
 147.66796875 763.66796875 198.655273438 780 247 780 c 4
 340 780 378 726 378 637 c 4
 378 529 299 418 212 310 c 5
 382 310 l 5
 382 240 l 5
 113 240 l 5
 113 304 l 5
 115 306 l 5
 237 448 297 559 297 637 c 4
 297 688 278 709 239 709 c 4
 193.013671875 709 141.052734375 666.546875 113 642 c 5
 113 729 l 5
EndSplineSet
Layer: 2
EndChar
StartChar: uni00B3
Encoding: 179 179 340
Width: 500
Flags: W
HStem: 230 71<147.628 287.635> 700 70<112 286>
VStem: 307 82<319.267 474.752>
LayerCount: 3
Back
Fore
SplineSet
134 329 m 4
 171 310 202 301 225 301 c 4
 286 301 307 329 307 394 c 4
 307 469 299 487 225 487 c 4
 163 487 l 5
 163 550 l 5
 286 700 l 5
 112 700 l 5
 112 770 l 5
 385 770 l 5
 385 706 l 5
 262 556 l 5
 357 549 389 493 389 394 c 4
 389 287 337 230 236 230 c 4
 199 230 161 238 126 252 c 5
 119 254 l 5
 119 337 l 5
 134 329 l 4
EndSplineSet
Layer: 2
EndChar
StartChar: cedilla
Encoding: 184 184 163
Width: 500
Flags: W
HStem: -238 56<161.111 293.096> -97 113<221 276.774>
VStem: 221 57<-60.0766 16> 299 71<-174.08 -106.283>
AnchorPoint: "bottom" 250 0 mark 0
LayerCount: 3
Back
Fore
SplineSet
299 -140 m 4
 299 -104 265 -97 212 -97 c 5
 221 16 l 5
 278 16 l 5
 278 -57 l 5
 343 -63 370 -101 370 -140 c 4
 370 -206 313 -238 249 -238 c 4
 209 -238 170 -229 144 -214 c 5
 171 -166 l 5
 190 -176 217 -182 239 -182 c 4
 274 -182 299 -170 299 -140 c 4
EndSplineSet
Layer: 2
EndChar
StartChar: uni00B9
Encoding: 185 185 344
Width: 500
Flags: W
VStem: 259 80<240 686>
LayerCount: 3
Back
Fore
SplineSet
339 240 m 5
 259 240 l 5
 259 686 l 5
 131 614 l 5
 131 692 l 5
 266 770 l 5
 339 770 l 5
 339 240 l 5
EndSplineSet
Layer: 2
EndChar
StartChar: ordmasculine
Encoding: 186 186 341
Width: 500
Flags: W
HStem: 240 66<195.69 304.105> 576 66<195.69 304.105>
VStem: 93 76<332.436 549.564> 330 76<331.497 550.503>
LayerCount: 3
Back
Fore
SplineSet
93 441 m 4
 93 572 146 642 250 642 c 4
 354 642 406 572 406 441 c 4
 406 310 354 240 250 240 c 4
 146 240 93 310 93 441 c 4
169 441 m 4
 169 360 182 306 250 306 c 4
 318 306 330 360 330 441 c 4
 330 522 318 576 250 576 c 4
 182 576 169 522 169 441 c 4
EndSplineSet
Layer: 2
EndChar
StartChar: onequarter
Encoding: 188 188 337
Width: 500
Flags: W
HStem: 1 21G<351 431> 123 67<220 351 431 493> 511 20G<330.343 431> 710 20G<117.385 225>
VStem: 145 80<210 646> 351 80<1 123 193 421>
LayerCount: 3
Back
Fore
SplineSet
351 190 m 1
 351 421 l 1
 220 190 l 5
 351 190 l 1
351 1 m 1
 351 123 l 1
 145 123 l 1
 145 193 l 1
 342 531 l 1
 431 531 l 1
 431 193 l 1
 493 193 l 1
 493 123 l 1
 431 123 l 1
 431 1 l 1
 351 1 l 1
225 210 m 5
 145 190 l 5
 145 646 l 5
 17 574 l 5
 17 652 l 5
 152 730 l 5
 225 730 l 5
 225 210 l 5
EndSplineSet
Layer: 2
EndChar
StartChar: onehalf
Encoding: 189 189 338
Width: 500
Flags: W
HStem: 0 70<304 474> 469 71<266.171 376.512> 710 20G<121.385 229>
VStem: 149 80<200 402 489 646> 205 24<402 489> 389 81<305.121 457.871>
LayerCount: 3
Back
Fore
SplineSet
205 489 m 5xec
 239.66796875 523.66796875 290.655273438 540 339 540 c 4
 432 540 470 486 470 397 c 4
 470 289 391 178 304 70 c 5
 474 70 l 5
 474 0 l 5
 205 0 l 5
 205 64 l 5
 207 66 l 5
 329 208 389 319 389 397 c 4
 389 448 370 469 331 469 c 4
 285.013671875 469 233.052734375 426.546875 205 402 c 5
 205 489 l 5xec
229 200 m 5xf4
 149 200 l 5
 149 646 l 5xf4
 21 574 l 5
 21 652 l 5
 156 730 l 5
 229 730 l 5xec
 229 200 l 5xf4
EndSplineSet
Layer: 2
EndChar
StartChar: threequarters
Encoding: 190 190 336
Width: 500
Flags: W
HStem: 1 21G<351 431> 123 67<220 351 431 493> 192 71<37.6279 154.305> 511 20G<330.343 431> 662 70<2 176>
VStem: 351 80<1 123 193 421>
LayerCount: 3
Back
Fore
SplineSet
351 190 m 1
 351 421 l 1
 220 190 l 5
 351 190 l 1
351 1 m 1
 351 123 l 1
 145 123 l 1
 145 193 l 1
 342 531 l 1
 431 531 l 1
 431 193 l 1
 493 193 l 1
 493 123 l 1
 431 123 l 1
 431 1 l 1
 351 1 l 1
24 291 m 4
 61 272 92 263 115 263 c 4
 176 263 197 291 197 356 c 4
 197 431 189 449 115 449 c 4
 53 449 l 5
 53 512 l 5
 176 662 l 5
 2 662 l 5
 2 732 l 5
 275 732 l 5
 275 668 l 5
 152 518 l 5
 247 511 279 455 279 356 c 4
 279 249 227 192 126 192 c 4
 89 192 51 200 16 214 c 5
 9 216 l 5
 9 299 l 5
 24 291 l 4
EndSplineSet
Layer: 2
EndChar
StartChar: questiondown
Encoding: 191 191 320
Width: 500
Flags: W
HStem: -220 76<179.918 373.66> 390 130<220 330>
VStem: 65 84<-115.119 18.3852> 220 110<390 520> 235 80<205.331 305>
LayerCount: 3
Back
Fore
SplineSet
65 -60 m 4xe8
 65 25.4111328125 108.376953125 72.8046875 150 121 c 4
 193.397460938 171.249023438 235 207.999023438 235 305 c 5
 315 305 l 5
 315 189.478515625 270.171875 136.568359375 219 79 c 4
 184.75 40.46875 149 5.6298828125 149 -60 c 4
 149 -121.103515625 197.586914062 -144 265 -144 c 4
 322 -144 382 -125.311523438 445 -87 c 5
 445 -175 l 5
 383 -205 320 -220 255 -220 c 4
 141.673828125 -220 65 -168.915039062 65 -60 c 4xe8
330 520 m 5xf0
 330 390 l 5
 220 390 l 5
 220 520 l 5
 330 520 l 5xf0
EndSplineSet
Layer: 2
EndChar
StartChar: AE
Encoding: 198 198 291
Width: 500
Flags: W
HStem: 0 72<332 480> 210 70<144 260> 360 70<332 470> 658 72<197 260 332 480>
VStem: 260 72<72 210 280 360 430 658>
LayerCount: 3
Back
Fore
SplineSet
332 658 m 5
 332 430 l 5
 470 430 l 1
 470 360 l 1
 332 360 l 5
 332 72 l 5
 480 72 l 1
 480 0 l 1
 260 0 l 1
 260 210 l 1
 128 210 l 1
 102 0 l 1
 20 0 l 1
 150 730 l 1
 480 730 l 1
 480 658 l 1
 332 658 l 5
260 660 m 1
 197 660 l 1
 144 280 l 1
 260 280 l 1
 260 660 l 1
EndSplineSet
Layer: 2
EndChar
StartChar: Eth
Encoding: 208 208 163
Width: 500
Flags: W
HStem: -10 72<147.712 300.299> 319 72<20 65 147 230> 668 72<147.712 291.47>
VStem: 65 82<63.7205 319 391 666.28> 383 82<176.697 551.785>
LayerCount: 3
Back
Fore
SplineSet
465 365 m 4
 465 227 444 130 402 74 c 4
 360 18 293 -10 202 -10 c 4
 155 -10 110 -4 65 7 c 5
 65 319 l 5
 20 319 l 5
 20 391 l 5
 65 391 l 5
 65 723 l 5
 110 734 155 740 202 740 c 4
 293 740 360 711 402 654 c 4
 444 597 465 501 465 365 c 4
383 365 m 4
 383 477 369 555 340 600 c 4
 311 645 265 668 202 668 c 4
 180 668 162 666 147 663 c 5
 147 391 l 5
 230 391 l 5
 230 319 l 5
 147 319 l 5
 147 67 l 5
 162 64 180 62 202 62 c 4
 300 62 336.817585805 97.0565258016 362 178 c 4
 376 223 383 285 383 365 c 4
EndSplineSet
Layer: 2
EndChar
StartChar: multiply
Encoding: 215 215 320
Width: 500
Flags: W
LayerCount: 3
Back
SplineSet
92 465 m 29
 408 149 l 1053
92 149 m 29
 408 465 l 1053
EndSplineSet
Fore
SplineSet
119 122 m 5
 65 176 l 5
 196 307 l 5
 65 438 l 5
 119 492 l 5
 250 361 l 5
 381 492 l 5
 435 438 l 5
 304 307 l 5
 435 176 l 5
 381 122 l 5
 250 253 l 5
 119 122 l 5
EndSplineSet
Layer: 2
EndChar
StartChar: Oslash
Encoding: 216 216 164
Width: 500
Flags: W
HStem: -10 72<186.016 312.316> 668 72<187.684 313.984>
VStem: 40 80<200.582 575.059> 380 80<154.941 529.418>
LayerCount: 3
Back
Fore
SplineSet
250 668 m 4
 120 668 120 481 120 365 c 4
 120 315.60048043 120.040088949 253.324757686 130.040088949 198.098546761 c 5
 349.88149281 599.309108808 l 5
 330.961548744 640.16393696 300.156411257 668 250 668 c 4
71.9243934959 -12.0133662991 m 5
 28.0756065041 12.0133662991 l 5
 77.412657891 102.05348508 l 5
 47.6706059269 170.213102136 40 263.523809203 40 365 c 4
 40 569 71 740 250 740 c 4
 315.606081522 740 361.330905466 717.029087529 392.934957053 677.881681051 c 5
 428.075606504 742.013366299 l 5
 471.924393496 717.986633701 l 5
 422.587342109 627.94651492 l 5
 452.329394073 559.786897864 460 466.476190797 460 365 c 4
 460 161 429 -10 250 -10 c 4
 184.393918478 -10 138.669094534 12.970912471 107.065042947 52.1183189492 c 5
 71.9243934959 -12.0133662991 l 5
150.11850719 130.690891192 m 5
 169.038451256 89.8360630397 199.843588743 62 250 62 c 4
 380 62 380 249 380 365 c 4
 380 414.399494101 379.959916219 476.675184736 369.959960938 531.901367188 c 5
 150.11850719 130.690891192 l 5
EndSplineSet
Layer: 2
EndChar
StartChar: Thorn
Encoding: 222 222 315
Width: 500
Flags: W
HStem: 0 21G<75 157> 175 70<158.172 321.601> 550 70<158.057 319.838> 710 20G<75 157>
VStem: 75 82<0 182 247.301 546.407 612 730> 375 80<297.905 495.051>
LayerCount: 3
Back
Fore
SplineSet
235 620 m 0
 388 620 455 554 455 400 c 0
 455 244 390 175 237 175 c 0
 214 175 187 178 157 182 c 1
 157 0 l 1
 75 0 l 1
 75 730 l 1
 157 730 l 1
 157 612 l 1
 183 618 209 620 235 620 c 0
227 245 m 0
 334 245 375 290 375 400 c 0
 375 504 330 550 227 550 c 0
 200 550 176 547 157 542 c 1
 157 250 l 1
 177 247 200 245 227 245 c 0
EndSplineSet
Layer: 2
EndChar
StartChar: germandbls
Encoding: 223 223 441
Width: 500
VWidth: 0
InSpiro: 1
Flags: W
HStem: -16 75<211.559 328.032> 0 21G<64 142> 404 76<235 321.903> 690 76<179.851 311.788>
VStem: 64 78<0 650.067> 348 79<506.755 654.195> 377 79<118.489 352.103>
LayerCount: 3
Back
Fore
SplineSet
427 581 m 0x7c
 427 523 406.961538462 475 365 446 c 1
 440.777777778 401 456 321 456 241 c 0
 456 12 324 -16 274 -16 c 0
 242.833333333 -16 213.555555556 -6.32 189 6 c 1
 219 76 l 1
 236.6 65.0714285714 256.4 59 274 59 c 0
 339 59 377 126 377 241 c 0xba
 377 324.484388807 353.565217391 404 271 404 c 2
 235 404 l 9
 235 480 l 1
 285 480 348 480 348 581 c 0
 348 649 312 690 244 690 c 0
 182 690 142 655 142 558 c 2
 142 0 l 1
 64 0 l 1
 64 568 l 6
 64 700.317307692 142 766 244 766 c 4
 355 766 427 693 427 581 c 0x7c
EndSplineSet
Layer: 2
SplineSet
103 0 m 1
 103 578 l 2
 103 597.605087596 103.450064297 617.436856293 108.582108946 636.358314412 c 0
 113.714153596 655.279772531 123.434904319 672.995831322 137.038115563 687.113625182 c 0
 150.641326808 701.231419041 167.831510936 711.685030748 186.27806986 718.324603285 c 0
 204.739103959 724.969385952 224.411846231 727.997898727 244.040634823 728.000004359 c 0
 265.029352094 728.000004359 286.124680431 724.510977849 305.589219343 716.659086907 c 0
 325.066319619 708.802128779 342.750001289 696.294991879 356 680 c 0
 367.334141601 666.061149939 375.348952785 649.571452058 380.259385416 632.290191739 c 0
 384.978301856 615.682933364 387.009995536 598.370924203 387.009995536 581.102269475 c 0
 387.009995536 561.389659668 384.573084598 542.54889063 378.690749202 524.154390898 c 0
 373.037856677 506.477376064 363.978469339 489.741366676 351.204543995 476.278124917 c 0
 338.430618654 462.814883158 321.975631124 452.955644447 304.170096395 447.721623021 c 0
 286.364561666 442.487601595 267.55888055 442.000000001 249 442 c 2
 235 442 l 1
 249 442 l 2
 276.211082669 442 304.122092464 440.48681133 328.970375516 429.396011115 c 0
 353.818658568 418.305210901 374.386215225 398.560727581 388 375 c 0
 411.136595441 334.958598484 416.000379323 286.972184083 416.000379323 240.709170907 c 0
 415.986077458 213.970850985 414.289290595 187.393274779 409.49042554 161.172706526 c 0
 404.737755165 135.204541858 396.676436543 109.580711578 383 87 c 0
 371.616021866 68.2042906022 356.224896563 51.6735831023 337.533767221 40.1186995516 c 0
 318.84263788 28.5638160008 296.973284443 22.2200470489 275 22 c 0
 274.59189272 21.9959130915 274.183850626 21.9938761462 273.775885295 21.9938761462 c 0
 249.422810988 21.9938761462 225.343273787 29.2522685121 204 41 c 0
 187.698839848 49.9724591605 172.838679518 61.5314754369 160 75 c 1024
  Spiro
    103 0 {
    103 578 ]
    244 728 o
    356 680 o
    387 579 o
    249 442 [
    235 442 v
    249 442 ]
    388 375 o
    416 240 o
    383 87 o
    275 22 o
    204 41 o
    160 75 o
    0 0 z
  EndSpiro
EndSplineSet
EndChar
StartChar: ae
Encoding: 230 230 292
Width: 500
Flags: W
HStem: -10 67<102.668 175.772 320.265 432.01> 234 66<280 407> 275 60<123.149 215> 463 67<74.3132 199.762 306.944 380.166>
VStem: 25 64<67.4648 240.034> 215 65<108.654 234 335 431.979> 407 66<300 433.956>
LayerCount: 3
Back
Fore
SplineSet
134 57 m 4xbe
 189.569767442 57 215 141 215 240 c 6
 215 275 l 5
 184 275 l 6
 120.954545455 275 89 233 89 150 c 4
 89 93 104.545454545 57 134 57 c 4xbe
41 495 m 5
 66 512 118 530 152 530 c 4
 203.636892519 530 237.050486088 515.411431979 256.330078125 469.723632812 c 5
 276.565991542 508.651990143 305.638044392 530 346 530 c 4
 444.777777778 530 473 424 473 265 c 4
 473 247 472 234 472 234 c 5
 280 234 l 5xde
 282 118 310 59 369 59 c 4
 396 59 425 71 457 95 c 5
 457 15 l 5
 425 -2 395 -10 366 -10 c 4
 306.21989207 -10 264.189757505 21.7383629699 239.909595992 85.21508879 c 5
 215.803198112 21.293812946 179.91590052 -10 134 -10 c 4
 61.5042962357 -10 25 52 25 145 c 4
 25 280 90 335 184 335 c 6
 215 335 l 5
 215 360 l 6
 215 435 200 463 152 463 c 4
 120 463 64 440 41 423 c 5
 41 495 l 5
280 300 m 5
 407 300 l 5
 406.075757576 407 386.666666667 461 346 461 c 4
 294.763157895 461 282.605263158 399 280 300 c 5
EndSplineSet
Layer: 2
EndChar
StartChar: eth
Encoding: 240 240 335
Width: 500
Flags: W
HStem: -10 69<181.261 318.729> 461 69<180.399 319.927>
VStem: 50 82<117.125 402.861> 368 82<117.139 449.723>
LayerCount: 3
Back
Fore
SplineSet
368 260 m 0
 368 374.314323 351.310245612 461 250 461 c 0
 148.733391155 461 132 374.237737539 132 260 c 0
 132 145.685677 148.689754388 59 250 59 c 0
 351.266608845 59 368 145.762262461 368 260 c 0
165.0234375 769.965820312 m 1
 246.9765625 770.034179688 l 1
 272.447547596 751.846690882 295.866327317 730.935630382 316.955459725 707.86839841 c 1
 409.915039062 755.47265625 l 5
 410.084960938 700.515625 l 5
 348.825956678 668.991948987 l 1
 376.955784321 630.6729279 399.362414095 588.077347175 415.072265625 543.196289062 c 0
 446.663085938 452.9453125 450 355.615234375 450 260 c 0
 450 80 383 -10 250 -10 c 0
 117 -10 50 80 50 260 c 0
 50 440 113.65 530 240 530 c 0
 286.699054452 530 327.139557142 516.558855299 361.295898438 469.306640625 c 1
 350.271876443 531.744326241 327.678630447 589.152854967 292.311523438 640.309570312 c 1
 198.084960938 592.526367188 l 1
 197.915039062 647.483398438 l 1
 262.888671875 680.427734375 l 1
 234.462727114 714.272194153 201.517506679 744.306744621 165.0234375 769.965820312 c 1
EndSplineSet
Layer: 2
EndChar
StartChar: divide
Encoding: 247 247 319
Width: 500
Flags: W
HStem: 55 120<199 301> 269 72<60 440> 435 120<199 301>
VStem: 199 102<55 175 435 555>
CounterMasks: 1 e0
LayerCount: 3
Back
Fore
SplineSet
199 55 m 5
 199 175 l 5
 301 175 l 5
 301 55 l 5
 199 55 l 5
199 435 m 5
 199 555 l 5
 301 555 l 5
 301 435 l 5
 199 435 l 5
60 341 m 5
 440 341 l 5
 440 269 l 5
 60 269 l 5
 60 341 l 5
EndSplineSet
Layer: 2
EndChar
StartChar: oslash
Encoding: 248 248 116
Width: 500
Flags: W
HStem: -10 69<180.827 318.405> 461 69<181.595 319.173>
VStem: 50 82<160.323 403.03> 368 82<116.97 359.677>
LayerCount: 3
Back
Fore
SplineSet
250 59 m 4
 291 59 321 74 340 104 c 4
 359 134 368 187 368 260 c 4
 368 300 365 334 359 361 c 5
 161 103 l 5
 180 73 210 59 250 59 c 4
70 -15 m 5
 30 15 l 5
 83 84 l 5
 61 127 50 186 50 260 c 4
 50 440 117 530 250 530 c 4
 308 530 354 513 387 479 c 5
 430 535 l 5
 470 505 l 5
 417 436 l 5
 439 393 450 334 450 260 c 4
 450 80 383 -10 250 -10 c 4
 192 -10 146 7 113 41 c 5
 70 -15 l 5
339 417 m 5
 320 447 290 461 250 461 c 4
 209 461 179 446 160 416 c 4
 141 386 132 333 132 260 c 4
 132 220 135 186 141 159 c 5
 339 417 l 5
EndSplineSet
Layer: 2
Ligature2: "'liga' Standard Ligatures lookup 1-1" o exclam
Substitution2: "'sups' Superscript lookup 1-1" oslash.sup
EndChar
StartChar: thorn
Encoding: 254 254 314
Width: 500
Flags: W
HStem: -210 21G<65 144> -10 75<202.76 319.118> 455 75<200.429 322.299> 710 20G<65 144>
VStem: 65 79<-210 75 134.397 387.733 445 730> 376 79<135.016 390.172>
LayerCount: 3
Back
Fore
SplineSet
144 445 m 1
 146 445 l 1
 175.912408759 504 221.934306569 530 280 530 c 0
 397 530 455 440 455 260 c 0
 455 224.237425798 455.271797355 -10 280 -10 c 0
 225.226277372 -10 178.233576642 16 146 75 c 1
 144 75 l 1
 144 -210 l 1
 65 -210 l 1
 65 730 l 5
 144 730 l 5
 144 445 l 1
376 260 m 0
 376 390 337 455 260 455 c 0
 147 455 144 296 144 265 c 0
 144 228 145 65 260 65 c 0
 347 65 376 158 376 260 c 0
EndSplineSet
Layer: 2
EndChar
StartChar: dcroat
Encoding: 273 273 318
Width: 500
Flags: W
HStem: -10 75<180.909 296.645> 0 21G<360.467 435> 455 75<177.701 299.243> 591 69<229 356 435 455> 710 20G<356 435>
VStem: 45 79<134.966 390.172> 356 79<0 75 134.397 387.733 445 591 660 730>
LayerCount: 3
Back
Fore
SplineSet
124 260 m 4xbe
 124 158 153 65 240 65 c 4
 355 65 356 228 356 265 c 4
 356 296 353 455 240 455 c 4
 163 455 124 390 124 260 c 4xbe
435 660 m 5
 455 660 l 5
 455 591 l 5
 435 591 l 5
 435 0 l 5
 361 0 l 5x7e
 359 75 l 5
 357 75 l 5
 322 18 276 -10 220 -10 c 4
 45 -10 45 224 45 260 c 4
 45 440 103 530 220 530 c 4
 281 530 325 502 354 445 c 5
 356 445 l 5
 356 591 l 5
 229 591 l 5
 229 660 l 5
 356 660 l 5
 356 730 l 5
 435 730 l 5
 435 660 l 5
EndSplineSet
Layer: 2
EndChar
StartChar: Hbar
Encoding: 294 294 436
Width: 500
Flags: W
HStem: 0 21G<60 140 356 440> 360 72<140 356> 591 69<45 60 140 356 440 455> 710 20G<60 140 356 440>
VStem: 60 80<0 360 432 591 660 730> 356 84<0 360 432 591 660 730>
LayerCount: 3
Back
Fore
SplineSet
60 660 m 1
 60 730 l 1
 140 730 l 1
 140 660 l 1
 356 660 l 1
 356 730 l 1
 440 730 l 1
 440 660 l 1
 455 660 l 1
 455 591 l 1
 440 591 l 1
 440 0 l 1
 356 0 l 1
 356 360 l 1
 140 360 l 1
 140 0 l 1
 60 0 l 1
 60 591 l 1
 45 591 l 1
 45 660 l 1
 60 660 l 1
140 591 m 1
 140 432 l 1
 356 432 l 1
 356 591 l 1
 140 591 l 1
EndSplineSet
Layer: 2
EndChar
StartChar: hbar
Encoding: 295 295 436
Width: 500
Flags: W
HStem: 0 21G<70 149 363 440> 459 71<214.255 335.804> 591 69<45 70 149 271> 710 20G<70 149>
VStem: 70 79<0 378.472 445 591 660 730> 363 77<0 430.27>
LayerCount: 3
Back
Fore
SplineSet
271 660 m 5
 271 591 l 5
 149 591 l 5
 149 445 l 1
 151 445 l 1
 174 491 224 530 290 530 c 0
 408 530 440 456 440 324 c 2
 440 0 l 1
 363 0 l 1
 363 282 l 2
 363 413 355 459 270 459 c 0
 215 459 149 400 149 252 c 2
 149 0 l 1
 70 0 l 1
 70 591 l 5
 45 591 l 5
 45 660 l 5
 70 660 l 5
 70 730 l 1
 149 730 l 1
 149 660 l 5
 271 660 l 5
EndSplineSet
Layer: 2
EndChar
StartChar: dotlessi
Encoding: 305 305 176
Width: 500
Flags: W
HStem: 0 68<95 234 316 425> 452 68<125 234>
VStem: 234 82<68 452>
AnchorPoint: "top" 275 520 basechar 0
LayerCount: 3
Back
Fore
SplineSet
316 520 m 1
 316 68 l 1
 425 68 l 1
 425 0 l 1
 95 0 l 1
 95 68 l 1
 234 68 l 1
 234 452 l 1
 125 452 l 1
 125 520 l 1
 316 520 l 1
EndSplineSet
Layer: 2
EndChar
StartChar: ij
Encoding: 307 307 434
Width: 500
Flags: W
HStem: -220 68<199 334.32> 0 68<35 104 186 255> 452 68<55 104 298 357> 640 120<84 186 337 439>
VStem: 55 131<452 520> 84 102<640 760> 104 82<68 452> 298 141<452 520> 337 102<640 760> 357 82<-128.166 452>
LayerCount: 3
Back
Fore
SplineSet
186 520 m 5xf8
 186 68 l 5
 255 68 l 5
 255 0 l 5
 35 0 l 5
 35 68 l 5
 104 68 l 5
 104 452 l 5xf2
 55 452 l 5
 55 520 l 5
 186 520 l 5xf8
84 640 m 5xf4
 84 760 l 5
 186 760 l 5
 186 640 l 5
 84 640 l 5xf4
357 -23 m 6xf040
 357 452 l 5xf040
 298 452 l 5
 298 520 l 5
 439 520 l 5xf1
 439 -23 l 6
 439 -101 436 -147 394 -183 c 4
 356 -216 281 -220 199 -220 c 5
 199 -152 l 5
 273 -152 316 -147 333 -132 c 4
 356 -112 357 -80 357 -23 c 6xf040
337 640 m 5xf080
 337 760 l 5
 439 760 l 5
 439 640 l 5
 337 640 l 5xf080
EndSplineSet
Layer: 2
EndChar
StartChar: kgreenlandic
Encoding: 312 312 240
Width: 500
Flags: W
HStem: 0 21G<80 159 348.715 460> 500 20G<80 159 348.308 460>
VStem: 80 79<0 253 286 520>
LayerCount: 3
Back
Fore
SplineSet
460 520 m 1
 230 270 l 1
 460 0 l 1
 365 0 l 1
 159 253 l 1
 159 0 l 1
 80 0 l 1
 80 520 l 5
 159 520 l 5
 159 286 l 1
 366 520 l 1
 460 520 l 1
EndSplineSet
Layer: 2
EndChar
StartChar: ldot
Encoding: 320 320 430
Width: 500
VWidth: 0
Flags: W
HStem: -10 68<218.967 359.966> 230 150<305 435> 662 68<70 129>
VStem: 70 141<662 730> 129 82<64.0932 662> 305 130<230 380>
LayerCount: 3
Back
Fore
SplineSet
211 180 m 2xec
 211 61.2607421875 211 58 285 58 c 0
 317 58 360 63 360 63 c 1
 360 -5 l 1
 360 -5 310 -10 275 -10 c 0
 152 -10 129 14.955078125 129 150 c 2
 129 662 l 1xec
 70 662 l 1
 70 730 l 1
 211 730 l 1xf4
 211 180 l 2xec
EndSplineSet
Refer: 322 183 S 1 0 0 1 120 0 2
Layer: 2
EndChar
StartChar: Lslash
Encoding: 321 321 431
Width: 500
Flags: W
HStem: 0 72<202 420> 710 20G<120 202>
VStem: 120 82<72 292 399 730>
LayerCount: 3
Back
Fore
SplineSet
120 360 m 5
 120 730 l 5
 202 730 l 5
 202 399 l 5
 297 445 l 5
 297 377 l 5
 202 331 l 5
 202 72 l 5
 420 72 l 5
 420 0 l 5
 120 0 l 5
 120 292 l 5
 47 257 l 5
 47 325 l 5
 120 360 l 5
EndSplineSet
Layer: 2
EndChar
StartChar: lslash
Encoding: 322 322 430
Width: 500
Flags: W
HStem: -10 68<288.967 429.966> 662 68<70 199>
VStem: 199 82<64.0934 662>
LayerCount: 3
Back
Fore
SplineSet
117 325 m 5
 367 445 l 5
 367 377 l 5
 117 257 l 5
 117 325 l 5
EndSplineSet
Refer: 76 108 S 1 0 0 1 0 0 2
Layer: 2
EndChar
StartChar: OE
Encoding: 338 338 322
Width: 500
Flags: W
HStem: -10 72<142.988 238.732> 668 72<141.74 238.024>
VStem: 20 81<144.101 586.775> 278 64<137.013 360 430 592.313>
AnchorPoint: "ogonoek" 420 0 basechar 0
AnchorPoint: "top" 250 730 basechar 0
LayerCount: 3
Back
SplineSet
342 658 m 5x36
 342 430 l 5
 470 430 l 5
 470 360 l 5
 342 360 l 5
 342 72 l 5
 480 72 l 5
 480 0 l 5
 280 0 l 5x76
 280 30 l 5
 258 4 230 -10 190 -10 c 4
 54 -10 20 161 20 365 c 4
 20 569 54 740 190 740 c 4xae
 230 740 258 726 280 700 c 5
 280 730 l 5
 480 730 l 5
 480 658 l 5
 342 658 l 5x36
190 668 m 4xae
 91 668 101 481 101 365 c 4
 101 249 91 62 190 62 c 4
 289 62 278 249 278 365 c 4
 278 481 289 668 190 668 c 4xae
EndSplineSet
Fore
SplineSet
190 -10 m 0
 230 -10 258 3.5 280 40 c 1
 280 0 l 1
 480 0 l 1
 480 72 l 1
 342 72 l 1
 342 360 l 1
 470 360 l 1
 470 430 l 1
 342 430 l 1
 342 658 l 1
 480 658 l 1
 480 730 l 1
 280 730 l 1
 280 690 l 1
 258 726.5 230 740 190 740 c 0
 67 740 20 599 20 365 c 0
 20 131 67 -10 190 -10 c 0
101 365 m 0
 101 526 101 668 190 668 c 0
 278 668 278 527 278 365 c 0
 278 201 278 62 190 62 c 0
 101 62 101 209 101 365 c 0
EndSplineSet
Layer: 2
EndChar
StartChar: oe
Encoding: 339 339 318
Width: 500
Flags: W
HStem: -10 69<127.964 200.664 324.129 437.226> 234 66<290 404> 461 69<127.964 200.338 314.746 381.525>
VStem: 30 71<88.8325 431.168> 226 64<100.947 234 300 432.596> 404 69<300 438.816>
LayerCount: 3
Back
Fore
SplineSet
290 300 m 5
 404 300 l 5
 403 407 387 461 352 461 c 4
 304 461 293 399 290 300 c 5
164 59 m 4
 218 59 226 146 226 260 c 4
 226 374 218 461 164 461 c 4
 110 461 101 374 101 260 c 4
 101 146 110 59 164 59 c 4
258 71 m 5
 240 17 209 -10 164 -10 c 4
 75 -10 30 80 30 260 c 4
 30 440 75 530 164 530 c 4
 208 530 239 505 257 454 c 5
 273 503 303 530 352 530 c 4
 446 530 473 424 473 265 c 4
 473 247 472 234 472 234 c 5
 290 234 l 5
 292 118 316 59 369 59 c 4
 396 59 426 71 458 95 c 5
 458 15 l 5
 426 -2 395 -10 366 -10 c 4
 314 -10 278 17 258 71 c 5
EndSplineSet
Layer: 2
EndChar
StartChar: tcaron
Encoding: 357 357 440
Width: 500
Flags: W
HStem: -10 67<229.713 383.616> 451 69<55 135 214 325> 500 280<380 440>
VStem: 135 79<73.755 451 520 690> 380 60<500 578.4>
LayerCount: 3
Back
Fore
SplineSet
285 -10 m 0xd8
 166.53515625 -10 135 28.5302734375 135 150 c 2
 135 451 l 1
 55 451 l 5
 55 520 l 5
 135 520 l 1
 135 690 l 1
 214 690 l 1
 214 520 l 1
 325 520 l 1
 325 451 l 1
 214 451 l 1
 214 160 l 2
 214 88.3154296875 218.89453125 57 295 57 c 0
 328 57 358 63.6669921875 385 74 c 1
 385 5 l 1
 353 -5 320 -10 285 -10 c 0xd8
EndSplineSet
Refer: 7 39 N 1 0 0 1 160 0 2
Layer: 2
EndChar
StartChar: uni0182
Encoding: 386 386 333
Width: 500
Flags: W
HStem: 0 21G<264.4 340> 710 20G<240.037 340>
VStem: 264.4 75.5996<0 640>
LayerCount: 3
Back
SplineSet
264.400390625 0 m 5
 264.400390625 640 l 5
 262.799804688 641 l 5
 134.400390625 540 l 5
 134.400390625 625 l 5
 264.400390625 730 l 5
 340 730 l 5
 340 0 l 5
 264.400390625 0 l 5
EndSplineSet
Fore
SplineSet
264.400390625 0 m 1
 264.400390625 640 l 1
 262.799804688 641 l 1
 197.400390625 590 l 5
 197.400390625 675 l 5
 264.400390625 730 l 1
 340 730 l 1
 340 0 l 1
 264.400390625 0 l 1
EndSplineSet
Layer: 2
EndChar
StartChar: uni0183
Encoding: 387 387 326
Width: 1000
Flags: W
HStem: -10 75<308.863 370.299 485.241 547.837> -10 67<106.406 181.086> 0 21G<580.636 641> 275 60<123.149 215> 455 10<576 577> 463 67<74.3132 200.015> 710 20G<397 459 578 641>
VStem: 25 64<73.5814 240.034> 215 62<105.414 275 335 419.318> 397 62<97.2512 423.654 491 730> 578 63<0 55 103.934 417.177 465 730>
LayerCount: 3
Back
Fore
SplineSet
144 57 m 4x53e0
 193.086419753 57 215 141 215 240 c 6
 215 275 l 5
 184 275 l 6
 121 275 89 233 89 150 c 4
 89 93 108.555555556 57 144 57 c 4x53e0
277 260 m 4
 277 158 294 65 342 65 c 4
 396 65 397 228 397 265 c 4
 397 296 395 455 342 455 c 4x9be0
 299 455 277 390 277 260 c 4
397 465 m 5
 397 730 l 5
 459 730 l 5
 459 491 l 5
 461 491 l 5
 474.471698113 517.382352941 491.79245283 530 512 530 c 4x17e0
 541.538461538 530 562.215384615 509 576 465 c 5
 578 465 l 5
 578 730 l 5
 641 730 l 5
 641 0 l 5
 581 0 l 5x3be0
 580 55 l 5
 579 55 l 5
 562 11 539 -10 512 -10 c 4
 462.679012346 -10 438.543209877 34.3773584906 427 86 c 5
 414.582417582 21.6981132075 381.56043956 -10 342 -10 c 4x93e0
 290.972604057 -10 258.683168317 31 243 82 c 5
 228.371428571 32 196.428571429 -10 144 -10 c 4
 65.3944954128 -10 25 52 25 145 c 4
 25 280 90 335 184 335 c 6
 215 335 l 5
 215 360 l 6
 215 435 200 463 152 463 c 4
 120 463 64 440 41 423 c 5
 41 495 l 5
 66 512 118 530 152 530 c 4
 200 530 232 516 252 474 c 5
 270 511 296 530 330 530 c 4x57e0
 356 530 381 509 395 465 c 5
 397 465 l 5
459 260 m 4
 459 158 473 65 514 65 c 4
 578 65 578 228 578 265 c 4
 578 296 577 455 514 455 c 4x9be0
 478 455 459 390 459 260 c 4
EndSplineSet
Layer: 2
EndChar
StartChar: add13
Encoding: 393 393 332
Width: 1000
Flags: W
HStem: -10 67<106.406 181.086> -10 74<1000.74 1129.4> -10 75<308.863 370.299 485.241 547.837> 0 21G<580.636 641 798.4 874> 275 60<123.149 215> 355 72<1092 1138.82> 455 10<576 577> 463 67<74.3132 200.015> 658 72<960 1155> 710 20G<397 459 578 641 774.037 874>
VStem: 25 64<73.5814 240.034> 215 62<105.414 275 335 419.318> 397 62<97.2512 423.654 491 730> 578 63<0 55 103.934 417.177 465 730> 798.4 75.5996<0 640> 1162.8 77.2002<98.6781 330.816>
LayerCount: 3
Back
Fore
SplineSet
1072 64 m 0x4cbf
 1138.29827009 64 1162.79980469 114 1162.79980469 210 c 0
 1162.79980469 320 1149.82840402 355 1072 355 c 2
 1011 355 l 1
 1011 427 l 1
 1155 656 l 1
 1155 658 l 1
 960 658 l 1
 960 730 l 1x4cbf
 1236 730 l 1x0c7f
 1236 658 l 1
 1092 429 l 1
 1092 427 l 1
 1203.2 427 1240 357 1240 210 c 0
 1240 63 1188 -10 1084 -10 c 0
 1044.8 -10 1006.4 0 968 20 c 1
 968 105 l 1
 1008.8 78 1044 64 1072 64 c 0x4cbf
EndSplineSet
Refer: 333 386 N 1 0 0 1 534 0 2
Refer: 326 387 N 1 0 0 1 0 0 2
Layer: 2
Substitution2: "'sups' Superscript lookup 0-1" add13.sup
Ligature2: "'liga' Standard Ligatures lookup 0-1" a d d one three
EndChar
StartChar: uni019F
Encoding: 415 415 385
Width: 1000
Flags: W
HStem: 232 50<45.0052 153.618 265.804 334.063 411.643 513.707> 576 49<87.5434 183.322 446.998 551.317>
VStem: 20 58<474.423 566.726> 202 57<397 556.172 595 618> 341 95<481.205 564.303> 341 57<318.939 466 576 618> 521 63<289.9 389.483>
LayerCount: 3
Back
Fore
SplineSet
24 321 m 5xfa
 46 299 78 282 103 282 c 4
 147 282 163 308 163 338 c 4
 163 375 140 385 111 404 c 4
 77 426 20 446 20 523 c 4
 20 592 82 625 119 625 c 4
 146 625 176 616 202 595 c 5
 202 618 l 5
 259 618 l 5
 259 356 l 6
 259 315 261 286 300 286 c 4
 340 286 341 315 341 358 c 6
 341 618 l 5
 398 618 l 5
 398 576 l 5xf6
 417 607 450 625 486 625 c 4
 512 625 541 618 566 600 c 5
 566 544 l 5
 540 565 510 576 494 576 c 4
 459 576 436 551 436 523 c 4
 436 498 456 480 486 460 c 4
 524 435 584 417 584 338 c 4
 584 265 525 232 486 232 c 4
 438 232 412 246 379 271 c 5
 365 248 341 232 300 232 c 4
 244 232 220 262 210 298 c 5
 193 253 150 232 119 232 c 4
 76 232 54 242 24 262 c 5
 24 321 l 5xfa
394 318 m 5
 418 296 447 282 470 282 c 4
 506 282 521 303 521 338 c 4
 521 374 505 388 478 404 c 4
 454 418 416 440 398 466 c 5
 398 378 l 6
 398 360 397 338 394 318 c 5
202 541 m 5
 174 564 144 576 127 576 c 4
 98 576 78 553 78 523 c 4
 78 490 96 475 118 460 c 4
 145 442 182 430 202 397 c 5
 202 541 l 5
EndSplineSet
Layer: 2
EndChar
StartChar: Ohorn
Encoding: 416 416 355
Width: 1000
Flags: W
HStem: 232 56<89.6543 168.05 266.013 326.369 419.929 480.664> 439 44<103.722 189> 568 57<47.8571 182.921 264.749 326.562 418.753 480.574>
VStem: 25 57<290.552 417.651> 189 55<311.174 439 483 547.828> 346 55<305.798 549.984 597 770> 502 56<239 277 308.886 547.886 578 770>
LayerCount: 3
Back
SplineSet
22 321 m 5xfa
 44 299 76 282 101 282 c 4
 145 282 161 308 161 338 c 4
 161 375 138 385 109 404 c 4
 75 426 18 446 18 523 c 4
 18 592 80 625 117 625 c 4
 144 625 174 616 200 595 c 5
 200 618 l 5
 257 618 l 5
 257 356 l 6
 257 315 259 286 298 286 c 4
 338 286 339 315 339 358 c 6
 339 618 l 5
 396 618 l 5
 396 576 l 5xf6
 415 607 448 625 484 625 c 4
 510 625 539 618 564 600 c 5
 564 544 l 5
 538 565 508 576 492 576 c 4
 457 576 434 551 434 523 c 4
 434 498 454 480 484 460 c 4
 522 435 582 417 582 338 c 4
 582 265 523 232 484 232 c 4
 436 232 410 246 377 271 c 5
 363 248 339 232 298 232 c 4
 242 232 218 262 208 298 c 5
 191 253 148 232 117 232 c 4
 74 232 52 242 22 262 c 5
 22 321 l 5xfa
392 318 m 5
 416 296 445 282 468 282 c 4
 504 282 519 303 519 338 c 4
 519 374 503 388 476 404 c 4
 452 418 414 440 396 466 c 5
 396 378 l 6
 396 360 395 338 392 318 c 5
200 541 m 5
 172 564 142 576 125 576 c 4
 96 576 76 553 76 523 c 4
 76 490 94 475 116 460 c 4
 143 442 180 430 200 397 c 5
 200 541 l 5
EndSplineSet
Fore
SplineSet
128 282 m 4
 169 282 189 342 189 414 c 4
 189 439 l 5
 163 439 l 4
 109 439 82 409 82 349 c 4
 82 308 98 282 128 282 c 4
244 429 m 4
 244 355 259 288 299 288 c 4
 344 288 346 405 346 432 c 4
 346 455 343 568 299 568 c 4
 263 568 244 523 244 429 c 4
346 578 m 5
 346 770 l 5
 401 770 l 5
 401 597 l 5
 413 616 428 625 446 625 c 4
 472 625 490 609 502 578 c 5
 502 770 l 5
 558 770 l 5
 558 239 l 5
 504 239 l 5
 504 277 l 5
 489 246 469 232 446 232 c 4
 404 232 383 262 373 298 c 5
 362 253 333 232 299 232 c 4
 255 232 228 261 214 297 c 5
 201 261 173 232 128 232 c 4
 60 232 25 277 25 345 c 4
 25 443 81 483 163 483 c 4
 189 483 l 5
 189 501 l 4
 189 555 176 574 135 574 c 4
 108 574 60 557 40 545 c 4
 38 544 l 5
 38 599 l 5
 39 599 l 5
 61 611 105 625 135 625 c 4
 176 625 203 615 221 586 c 5
 237 612 260 625 289 625 c 4
 312 625 334 609 346 578 c 5
401 429 m 4
 401 355 414 288 448 288 c 4
 502 288 502 405 502 432 c 4
 502 455 501 568 448 568 c 4
 418 568 401 523 401 429 c 4
EndSplineSet
Layer: 2
EndChar
StartChar: ohorn
Encoding: 417 417 378
Width: 1000
Flags: W
HStem: -10 67<58.8559 162.296 297.167 365.307 466.352 564.184> 463 67<99.6073 191.749 500.511 600.022> 500 20G<223 285 377 439>
VStem: 20 64<326.774 448.66> 223 62<213.321 433.903 488.045 520> 377 105<334.454 444.755> 377 62<108.12 313.14 460.898 520> 577 69<69.458 202.956>
LayerCount: 3
Back
Fore
SplineSet
20 390 m 4xdd
 20 485 89 530 130 530 c 4xdd
 160.406892588 530 193.291945576 517.950416842 223 488.045355853 c 5
 223 520 l 5
 285 520 l 5
 285 160 l 6
 285 104 287 63 331 63 c 4
 375.977777778 63 377 103 377 162 c 6
 377 520 l 5
 439 520 l 5
 439 460.8984375 l 5xbb
 460.131252487 504.592707097 497.045644128 530 538 530 c 4
 566.8 530 598 519 626 495 c 5
 626 420 l 5
 596.707865169 449 564.930337079 463 547 463 c 4
 508 463 482 429 482 390 c 4
 482 354.9 503.20434878 330.09507464 537 303 c 4
 579.456675271 268.961100204 646 243.018181818 646 135 c 4
 646 35 581 -10 538 -10 c 4
 484.679804211 -10 455.143872702 8.32145121663 418.484877593 43.6446107493 c 5
 403.310164194 12.0953896797 376.913879205 -10 331 -10 c 4
 268.518861341 -10 242.181719969 31.9406760971 231.081910234 82.17225223 c 5
 213.215650308 18.9996408485 164.51902409 -10 130 -10 c 4
 83 -10 58 3 25 30 c 5
 25 110 l 5
 49.0186915888 80 85.1682242991 57 112 57 c 4
 161.62962963 57 179 93 179 135 c 4
 179 186.010526316 153.284845446 200.6055083 121 227 c 4
 83.0749087826 258.005677479 20 285.06875 20 390 c 4xdd
435.332644098 106.789937851 m 5
 462.308305582 76.7808270056 494.559548964 57 520 57 c 4
 560.222222222 57 577 86 577 135 c 4
 577 185.010526316 558.942770528 205.348680953 529 227 c 4
 501.821407592 246.652569387 458.75863755 276.332039873 439 313.139648438 c 5
 439 190 l 6x9b
 439 164.589762952 438.899112477 135.144024987 435.332644098 106.789937851 c 5
223 415.088632756 m 5
 191.67490181 447.393375009 158.111708788 463 139 463 c 4xd9
 106 463 84 431 84 390 c 4
 84 344.9 104.178804667 323.865438998 129 303 c 4
 159.059881339 277.730764899 200.925424526 260.759668343 223 213.320951668 c 5
 223 415.088632756 l 5
EndSplineSet
Layer: 2
EndChar
StartChar: sus4
Encoding: 419 419 380
Width: 1000
Flags: W
HStem: -10 67<58.8559 162.296 297.167 365.307 466.352 564.184> 0 21G<886.399 962> 175 72<764.8 886.399 962 1010> 463 67<99.6073 191.749 500.511 600.022> 500 20G<223 285 377 439> 710 20G<870.602 962>
VStem: 20 64<326.774 448.66> 223 62<213.321 433.903 488.045 520> 377 62<108.12 313.14 460.898 520> 377 105<334.454 444.755> 577 69<69.458 202.956> 886.399 75.6006<0 175 247 570>
LayerCount: 3
Back
Fore
SplineSet
886.399414062 570 m 5x2730
 884.799804688 570 l 5
 764.799804688 249 l 5
 764.799804688 247 l 5
 886.399414062 247 l 5
 886.399414062 570 l 5x2730
886.399414062 175 m 5
 694 175 l 5
 694 257 l 5
 878.399414062 730 l 5
 962 730 l 5
 962 247 l 5
 1010 247 l 5
 1010 175 l 5
 962 175 l 5
 962 0 l 5
 886.399414062 0 l 5x6730
 886.399414062 175 l 5
EndSplineSet
Refer: 378 417 N 1 0 0 1 0 0 2
Layer: 2
Ligature2: "'liga' Standard Ligatures lookup 0-1" s u s four
Substitution2: "'sups' Superscript lookup 0-1" sus4.sup
EndChar
StartChar: uni0237
Encoding: 567 567 312
Width: 500
Flags: W
HStem: -220 68<91 226.241> 452 68<130 249>
VStem: 249 82<-128.086 452>
AnchorPoint: "top" 285 520 basechar 0
LayerCount: 3
Back
Fore
SplineSet
249 -23 m 6
 249 452 l 5
 130 452 l 5
 130 520 l 5
 331 520 l 5
 331 -23 l 6
 331 -101 328.296110497 -146.808979543 286 -183 c 4
 247.819836091 -215.669176358 173 -220 91 -220 c 5
 91 -152 l 5
 165.421052632 -152 207.834586466 -147 225 -132 c 4
 247.973972802 -111.924189339 249 -80 249 -23 c 6
EndSplineSet
Layer: 2
EndChar
StartChar: circumflex
Encoding: 710 710 158
Width: 500
Flags: W
HStem: 610 160
VStem: 87 326
AnchorPoint: "top" 250 520 mark 0
LayerCount: 3
Back
Fore
SplineSet
87 651 m 5
 223 770 l 5
 279 770 l 5
 413 651 l 5
 375 610 l 5
 251 701 l 5
 127 610 l 5
 87 651 l 5
EndSplineSet
Layer: 2
EndChar
StartChar: uni02C9
Encoding: 713 713 160
Width: 500
Flags: W
HStem: 640 64<115.5 384.5>
VStem: 115.5 269<640 704>
AnchorPoint: "top" 250 520 mark 0
LayerCount: 3
Back
Fore
SplineSet
115.5 640 m 1
 115.5 704 l 1
 384.5 704 l 1
 384.5 640 l 1
 115.5 640 l 1
EndSplineSet
Layer: 2
EndChar
StartChar: breve
Encoding: 728 728 155
Width: 500
Flags: W
HStem: 610 64<193.288 305.832>
VStem: 102 56<711.128 746.625> 342 56<713.19 746.625>
AnchorPoint: "top" 250 520 mark 0
LayerCount: 3
Back
Fore
SplineSet
248 610 m 4
 157 610 110 685 102 745 c 5
 158 758 l 5
 172 708 201 674 248 674 c 4
 296 674 327 708 342 758 c 5
 398 745 l 5
 390 685 340 610 248 610 c 4
EndSplineSet
Layer: 2
EndChar
StartChar: dotaccent
Encoding: 729 729 156
Width: 500
Flags: W
HStem: 640 120<199 301>
VStem: 199 102<640 760>
AnchorPoint: "top" 250 520 mark 0
LayerCount: 3
Back
Fore
SplineSet
199 640 m 5
 199 760 l 5
 301 760 l 5
 301 640 l 5
 199 640 l 5
EndSplineSet
Layer: 2
EndChar
StartChar: ring
Encoding: 730 730 124
Width: 500
Flags: W
HStem: 480 50<207.649 292.351> 634 50<207.649 292.351>
VStem: 148 50<539.649 624.351> 302 50<539.649 624.351>
AnchorPoint: "top" 250 520 mark 0
LayerCount: 3
Back
Fore
SplineSet
198 582 m 4
 198 552.6953125 220.694335938 530 250 530 c 4
 279.3046875 530 302 552.694335938 302 582 c 4
 302 611.3046875 279.305664062 634 250 634 c 4
 220.6953125 634 198 611.305664062 198 582 c 4
148 582 m 4
 148 638.694335938 193.3046875 684 250 684 c 4
 306.694335938 684 352 638.6953125 352 582 c 4
 352 525.305664062 306.6953125 480 250 480 c 4
 193.305664062 480 148 525.3046875 148 582 c 4
EndSplineSet
Layer: 2
EndChar
StartChar: ogonek
Encoding: 731 731 156
Width: 500
Flags: W
HStem: -229 67<181.551 285.13> 0 30<274.029 289.267>
VStem: 100 76<-155.844 -63.8692>
AnchorPoint: "ogonoek" 300 0 mark 0
LayerCount: 3
Back
Fore
SplineSet
300 0 m 1
 197 -46 176 -79 176 -115 c 0
 176 -144 190 -162 231 -162 c 0
 252 -162 268 -161 293 -155 c 1
 285 -222 l 1
 265 -226 248 -229 221 -229 c 0
 145 -229 100 -186 100 -131 c 0
 100 -61 156 -8 286 30 c 1
 300 0 l 1
EndSplineSet
Layer: 2
EndChar
StartChar: tilde
Encoding: 732 732 126
Width: 500
Flags: W
HStem: 610 65<266.815 343.146> 659 64<156.854 233.196>
VStem: 88 324
AnchorPoint: "top" 250 520 mark 0
LayerCount: 3
Back
Fore
SplineSet
302 610 m 4xa0
 245 610 223 659 192 659 c 4
 170 659 158 643 142 615 c 5
 88 639 l 5
 108 684 141 723 198 723 c 4x60
 257 723 277 675 308 675 c 4
 330 675 342 691 358 719 c 5
 412 695 l 5
 392 651 359 610 302 610 c 4xa0
EndSplineSet
Layer: 2
EndChar
StartChar: hungarumlaut
Encoding: 733 733 159
Width: 500
Flags: W
HStem: 610 199
VStem: 118 324
AnchorPoint: "top" 250 520 mark 0
LayerCount: 3
Back
Fore
SplineSet
195 809 m 5
 269 774 l 5
 172 610 l 5
 118 636 l 5
 195 809 l 5
369 811 m 5
 442 773 l 5
 334 610 l 5
 282 638 l 5
 369 811 l 5
EndSplineSet
Layer: 2
EndChar
StartChar: uni0312
Encoding: 786 786 313
Width: 500
Flags: W
HStem: 643 180<270 290>
VStem: 180 160
AnchorPoint: "top" 255 520 mark 0
LayerCount: 3
Back
Fore
SplineSet
290 643 m 5
 180 643 l 5
 270 823 l 5
 340 823 l 5
 290 643 l 5
EndSplineSet
Layer: 2
EndChar
StartChar: uni0326
Encoding: 806 806 310
Width: 500
Flags: W
HStem: -280 180<200 220>
VStem: 150 160
AnchorPoint: "bottom" 255 0 mark 0
LayerCount: 3
Back
Fore
SplineSet
200 -100 m 1
 310 -100 l 1
 220 -280 l 1
 150 -280 l 1
 200 -100 l 1
EndSplineSet
Layer: 2
EndChar
StartChar: Delta
Encoding: 916 916 113
Width: 500
Flags: W
HStem: 0 70<119 377> 710 20G<195.068 304.932>
LayerCount: 3
Back
Fore
SplineSet
249 660 m 5
 247 660 l 5
 119 70 l 5
 377 70 l 5
 249 660 l 5
20 0 m 5
 200 730 l 5
 300 730 l 5
 480 0 l 5
 20 0 l 5
EndSplineSet
Layer: 2
Substitution2: "'sups' Superscript lookup 1-1" Delta.sup
Ligature2: "'liga' Standard Ligatures lookup 1-1" A exclam
EndChar
StartChar: endash
Encoding: 8211 8211 96
Width: 500
Flags: W
HStem: 269 72<60 440>
LayerCount: 3
Back
Fore
SplineSet
60 269 m 1
 60 341 l 1
 440 341 l 1
 440 269 l 1
 60 269 l 1
EndSplineSet
Layer: 2
EndChar
StartChar: emdash
Encoding: 8212 8212 97
Width: 500
Flags: W
HStem: 269 72<20 480>
LayerCount: 3
Back
Fore
SplineSet
20 269 m 5
 20 341 l 5
 480 341 l 5
 480 269 l 5
 20 269 l 5
EndSplineSet
Layer: 2
EndChar
StartChar: uni2015
Encoding: 8213 8213 98
Width: 1000
Flags: W
HStem: 269 72<20 980>
LayerCount: 3
Back
Fore
SplineSet
20 269 m 1
 20 341 l 1
 980 341 l 5
 980 269 l 5
 20 269 l 1
EndSplineSet
Layer: 2
EndChar
StartChar: quoteleft
Encoding: 8216 8216 99
Width: 500
Flags: W
HStem: 500 280<265 275>
VStem: 155 180
LayerCount: 3
Back
Fore
SplineSet
275 500 m 1
 155 500 l 1
 265 780 l 1
 335 780 l 1
 275 500 l 1
EndSplineSet
Layer: 2
EndChar
StartChar: quoteright
Encoding: 8217 8217 100
Width: 500
Flags: W
HStem: 500 280<220 230>
VStem: 160 180
LayerCount: 3
Back
Fore
SplineSet
220 780 m 1
 340 780 l 1
 230 500 l 1
 160 500 l 1
 220 780 l 1
EndSplineSet
Layer: 2
EndChar
StartChar: quotesinglbase
Encoding: 8218 8218 101
Width: 500
Flags: W
HStem: -130 280<220 230>
VStem: 160 180
LayerCount: 3
Back
Fore
SplineSet
220 150 m 1
 340 150 l 1
 230 -130 l 1
 160 -130 l 1
 220 150 l 1
EndSplineSet
Layer: 2
EndChar
StartChar: quotereversed
Encoding: 8219 8219 102
Width: 500
Flags: W
HStem: 500 280<270 280>
VStem: 160 180
LayerCount: 3
Back
Fore
SplineSet
280 780 m 1
 340 500 l 1
 270 500 l 1
 160 780 l 1
 280 780 l 1
EndSplineSet
Layer: 2
EndChar
StartChar: quotedblleft
Encoding: 8220 8220 103
Width: 500
Flags: W
HStem: 500 280
VStem: 80 320
LayerCount: 3
Back
Fore
SplineSet
340 500 m 1
 230 500 l 1
 340 780 l 1
 400 780 l 1
 340 500 l 1
190 500 m 1
 80 500 l 1
 190 780 l 1
 250 780 l 1
 190 500 l 1
EndSplineSet
Layer: 2
EndChar
StartChar: quotedblright
Encoding: 8221 8221 104
Width: 500
Flags: W
HStem: 500 280
VStem: 90 320
LayerCount: 3
Back
Fore
SplineSet
300 780 m 1
 410 780 l 1
 300 500 l 1
 240 500 l 1
 300 780 l 1
150 780 m 1
 260 780 l 1
 150 500 l 1
 90 500 l 1
 150 780 l 1
EndSplineSet
Layer: 2
EndChar
StartChar: quotedblbase
Encoding: 8222 8222 105
Width: 500
Flags: W
HStem: -130 280
VStem: 90 320
LayerCount: 3
Back
Fore
SplineSet
300 150 m 1
 410 150 l 1
 300 -130 l 1
 240 -130 l 1
 300 150 l 1
150 150 m 1
 260 150 l 1
 150 -130 l 1
 90 -130 l 1
 150 150 l 1
EndSplineSet
Layer: 2
EndChar
StartChar: uni201F
Encoding: 8223 8223 106
Width: 500
Flags: W
HStem: 500 280
VStem: 90 320
LayerCount: 3
Back
Fore
SplineSet
200 780 m 1
 260 500 l 1
 200 500 l 1
 90 780 l 1
 200 780 l 1
350 780 m 1
 410 500 l 1
 350 500 l 1
 240 780 l 1
 350 780 l 1
EndSplineSet
Layer: 2
EndChar
StartChar: twodotenleader
Encoding: 8229 8229 107
Width: 1000
Flags: W
HStem: 0 150<185 315 685 815>
VStem: 185 130<0 150> 685 130<0 150>
LayerCount: 3
Back
Fore
SplineSet
685 0 m 5
 685 150 l 5
 815 150 l 5
 815 0 l 5
 685 0 l 5
185 0 m 5
 185 150 l 5
 315 150 l 5
 315 0 l 5
 185 0 l 5
EndSplineSet
Layer: 2
EndChar
StartChar: ellipsis
Encoding: 8230 8230 108
Width: 1000
Flags: W
HStem: 0 150<102 232 435 565 768 898>
VStem: 102 130<0 150> 435 130<0 150> 768 130<0 150>
CounterMasks: 1 70
LayerCount: 3
Back
Fore
SplineSet
768 0 m 5
 768 150 l 5
 898 150 l 5
 898 0 l 5
 768 0 l 5
435 0 m 5
 435 150 l 5
 565 150 l 5
 565 0 l 5
 435 0 l 5
102 0 m 5
 102 150 l 5
 232 150 l 5
 232 0 l 5
 102 0 l 5
EndSplineSet
Layer: 2
EndChar
StartChar: arrowright
Encoding: 8594 8594 300
Width: 500
Flags: W
HStem: 269 72<60 310>
LayerCount: 3
Back
Fore
SplineSet
60 269 m 1
 60 341 l 1
 310 341 l 1
 310 491 l 1
 460 321 l 1
 460 289 l 1
 310 119 l 5
 310 269 l 1
 60 269 l 1
EndSplineSet
Layer: 2
EndChar
StartChar: flat
Encoding: 9837 9837 116
Width: 500
InSpiro: 1
Flags: W
HStem: 405 75<249.901 364.377> 710 20G<105 184>
VStem: 105 79<88 327.934 399 730> 396 79<225.722 372.564>
LayerCount: 3
Back
Fore
SplineSet
396 306 m 4
 396 360 361 405 309 405 c 4
 260 405 225 368 207 332 c 4
 186 289 184 234 184 175 c 4
 184 146 184 117 184 88 c 5
 267 115 336 153 374 224 c 4
 388 250 396 278 396 306 c 4
  Spiro
    396 306 o
    385.021 355.623 o
    354.628 391.359 o
    309 405 o
    264.817 394.095 o
    230.527 366.893 o
    207 332 o
    191.714 285.346 o
    185.293 232.315 o
    184 175 ]
    184 88 v
    261.632 119.445 o
    326.353 163.237 o
    374 224 o
    385.916 250.565 o
    393.413 278.102 o
    0 0 z
  EndSpiro
187 399 m 5
 220.080078125 442.470703125 263.3359375 480 329 480 c 4
 369.344726562 480 408.63671875 459.859375 436 426 c 4
 463.477539062 392 475 348 475 306 c 4
 475 216 422 145 372 101 c 4
 296.958984375 34.9638671875 182.825195312 6.248046875 105 -3 c 5
 105 730 l 5
 184 730 l 5
 184 399 l 5
 187 399 l 5
  Spiro
    187 399 v
    223.884 439.284 o
    270.404 468.682 o
    329 480 o
    368.552 473.537 o
    405.097 455.025 o
    436 426 o
    458.306 389.15 o
    471.003 348.18 o
    475 306 o
    459.437 222.706 o
    420.88 153.643 o
    372 101 o
    286.813 46.786 o
    192.042 13.3744 o
    105 -3 v
    105 730 v
    184 730 v
    184 399 v
    0 0 z
  EndSpiro
EndSplineSet
Layer: 2
SplineSet
144.5 730 m 1
 144.5 133 l 1025
  Spiro
    144.5 730 {
    144.5 133 v
    0 0 z
  EndSpiro
144.5 37.5 m 1
 162 42.5 l 2
 227.467773438 61.205078125 293.568359375 84.2890625 345.329101562 128.5234375 c 0
 371.209960938 150.640625 393.397460938 177.243164062 409.416992188 207.282226562 c 0
 425.545898438 237.525390625 435.501953125 271.221679688 435.501953125 305.717773438 c 0
 435.501953125 340.600585938 424.32421875 376.073242188 401 402 c 0
 377.928710938 427.646484375 343.567382812 442.5 309.071289062 442.5 c 0
 279.643554688 442.491210938 250.603515625 432.250976562 226.754882812 415.049804688 c 0
 202.927734375 397.865234375 184.291015625 373.999023438 171.500976562 347.551757812 c 0
 145.921875 294.657226562 144.5 233.754882812 144.5 175 c 2
 144.5 37.5 l 1
  Spiro
    144.5 37.5 v
    162 42.5 ]
    435.5 305 o
    401 402 o
    309 442.5 o
    144.5 175 [
    0 0 z
  EndSpiro
EndSplineSet
Substitution2: "'sups' Superscript lookup 0-1" flat.sup
Ligature2: "'liga' Standard Ligatures lookup 0-1" b exclam
EndChar
StartChar: normal
Encoding: 9838 9838 295
Width: 500
Flags: W
HStem: 0 21G<332 408> 710 20G<92 168>
VStem: 92 76<246 459 535 730> 332 76<0 223 300 513>
LayerCount: 3
Back
Fore
SplineSet
332 300 m 5
 332 513 l 5
 168 459 l 5
 168 246 l 5
 332 300 l 5
168 535 m 5
 408 613 l 5
 408 0 l 5
 332 0 l 5
 332 223 l 5
 92 144 l 5
 92 730 l 5
 168 730 l 5
 168 535 l 5
EndSplineSet
Layer: 2
LCarets2: 1 0
Substitution2: "'sups' Superscript lookup 1-1" normal.sup
Ligature2: "'liga' Standard Ligatures lookup 1-1" numbersign question
EndChar
StartChar: sharp
Encoding: 9839 9839 296
Width: 500
Flags: W
VStem: 122 76<-30 148.232 250.568 437.232 539.568 700> 302 76<30 209.432 311.768 498.432 600.768 760>
LayerCount: 3
Back
Fore
SplineSet
302 498.431992187 m 1
 198 463.071992187 l 1
 198 250.568007813 l 1
 302 285.928007813 l 1
 302 498.431992187 l 1
198 -30 m 1
 122 -30 l 1
 122 148.231992187 l 1
 50 123.751992187 l 1
 50 200.248007812 l 1
 122 224.728007812 l 1
 122 437.231992188 l 1
 50 412.751992188 l 1
 50 489.248007812 l 1
 122 513.728007812 l 1
 122 700 l 1
 198 700 l 1
 198 539.568007813 l 1
 302 574.928007813 l 1
 302 760 l 1
 378 760 l 1
 378 600.768007812 l 1
 450 625.248007812 l 1
 450 548.751992188 l 1
 378 524.271992188 l 1
 378 311.768007813 l 1
 450 336.248007812 l 1
 450 259.751992188 l 1
 378 235.271992188 l 1
 378 30 l 1
 302 30 l 1
 302 209.431992187 l 1
 198 174.071992187 l 1
 198 -30 l 1
EndSplineSet
Layer: 2
LCarets2: 1 0
Substitution2: "'sups' Superscript lookup 1-1" sharp.sup
Ligature2: "'liga' Standard Ligatures lookup 1-1" numbersign exclam
EndChar
StartChar: uni3008
Encoding: 12296 12296 109
Width: 1000
Flags: W
LayerCount: 3
Back
Fore
SplineSet
903 815 m 1
 630 360 l 1
 903 -95 l 1
 822 -95 l 1
 548 360 l 1
 822 815 l 1
 903 815 l 1
EndSplineSet
Layer: 2
EndChar
StartChar: uni3009
Encoding: 12297 12297 110
Width: 1000
Flags: W
LayerCount: 3
Back
Fore
SplineSet
97 815 m 1
 178 815 l 1
 452 360 l 1
 178 -95 l 1
 97 -95 l 1
 370 360 l 1
 97 815 l 1
EndSplineSet
Layer: 2
EndChar
StartChar: uni300A
Encoding: 12298 12298 111
Width: 1000
Flags: W
LayerCount: 3
Back
Fore
SplineSet
903 815 m 1
 630 360 l 1
 903 -95 l 1
 825 -95 l 1
 552 360 l 1
 825 815 l 1
 903 815 l 1
750 815 m 1
 476 360 l 1
 750 -95 l 1
 672 -95 l 1
 398 360 l 1
 672 815 l 1
 750 815 l 1
EndSplineSet
Layer: 2
EndChar
StartChar: uni300B
Encoding: 12299 12299 112
Width: 1000
Flags: W
LayerCount: 3
Back
Fore
SplineSet
97 815 m 1
 175 815 l 1
 448 360 l 1
 175 -95 l 1
 97 -95 l 1
 370 360 l 1
 97 815 l 1
250 815 m 1
 328 815 l 1
 602 360 l 1
 328 -95 l 1
 250 -95 l 1
 524 360 l 1
 250 815 l 1
EndSplineSet
Layer: 2
EndChar
StartChar: one.sup
Encoding: 57345 57345 347
Width: 500
Flags: W
VStem: 230 75<240 692>
LayerCount: 3
Back
Fore
SplineSet
305 240 m 1
 230 240 l 1
 230 692 l 1
 169 657 l 5
 169 731 l 5
 236 770 l 1
 305 770 l 1
 305 240 l 1
EndSplineSet
Layer: 2
EndChar
StartChar: two.sup
Encoding: 57346 57346 348
Width: 500
Flags: W
HStem: 240 66<179 417> 711 69<137.36 319.678>
VStem: 337 76<560.367 692.06>
LayerCount: 3
Back
Fore
SplineSet
249 780 m 4
 375 780 413 718 413 638 c 4
 413 529 332 417 179 306 c 5
 417 306 l 5
 417 240 l 5
 81 240 l 5
 81 301 l 5
 83 303 l 4
 250 450 337 551 337 636 c 4
 337 686 319 711 231 711 c 4
 165 711 111 678 81 655 c 5
 81 734 l 5
 120 765 176 780 249 780 c 4
EndSplineSet
Layer: 2
EndChar
StartChar: three.sup
Encoding: 57347 57347 349
Width: 500
Flags: W
HStem: 233 69<77.8792 319.292> 492 65<242 331.044> 705 68<62 326>
VStem: 363 76<340.089 465.005>
LayerCount: 3
Back
Fore
SplineSet
208 233 m 4
 143 233 107 239 69 252 c 5
 69 327 l 5
 107 311 143 302 186 302 c 4
 320 302 363 335 363 397 c 4
 363 469 343 492 186 492 c 6
 113 492 l 5
 113 553 l 5
 326 705 l 5
 62 705 l 5
 62 773 l 5
 435 773 l 5
 435 711 l 5
 242 557 l 5
 404 553 439 500 439 396 c 4
 439 287 386 233 208 233 c 4
EndSplineSet
Layer: 2
EndChar
StartChar: five.sup
Encoding: 57349 57349 351
Width: 500
Flags: W
HStem: 233 69<81.1875 311.229> 514 69<150.939 317.202> 705 68<153 416>
VStem: 72 78<567 607.857> 79 74<567 705> 354 76<340.028 478.772>
LayerCount: 3
Back
Fore
SplineSet
232 514 m 4xf4
 179 514 156 503 138 484 c 5
 72 484 l 5xf4
 79 773 l 5
 416 773 l 5
 416 705 l 5
 153 705 l 5xec
 150 567 l 5
 173 579 206 583 251 583 c 4
 358 583 430 524 430 412 c 4
 430 280 351 233 200 233 c 4
 143 233 105 239 68 252 c 5
 68 329 l 5
 106 313 142 302 192 302 c 4
 323 302 354 338 354 411 c 4
 354 480 316 514 232 514 c 4xf4
EndSplineSet
Layer: 2
EndChar
StartChar: seven.sup
Encoding: 57351 57351 353
Width: 500
Flags: W
HStem: 705 65<76 346>
VStem: 112 78<240 298.945>
LayerCount: 3
Back
Fore
SplineSet
346 705 m 5
 76 705 l 5
 76 770 l 5
 425 770 l 5
 425 710 l 5
 305 540 242 406 190 240 c 5
 112 240 l 5
 162 400 226 535 346 705 c 5
EndSplineSet
Layer: 2
EndChar
StartChar: flat.sup
Encoding: 57354 57354 356
Width: 500
Flags: W
HStem: 522 73<210.378 318.084>
VStem: 102 77<318 487.886 553 770> 333 77<396.416 507.5>
LayerCount: 3
Back
Fore
SplineSet
333 452 m 4
 333 491.516129032 314.849056604 522 270 522 c 4
 196.358024691 522 179 466.299363057 179 357 c 6
 179 318 l 5
 252.552238806 336.612903226 333 388.241935484 333 452 c 4
179 770 m 5
 179 553 l 5
 205.526315789 577 237.578947368 595 284 595 c 4
 357.862068966 595 410 538 410 464 c 4
 410 322 234.611111111 243 102 237 c 5
 102 770 l 5
 179 770 l 5
EndSplineSet
Layer: 2
LCarets2: 1 0
Ligature2: "'liga' Standard Ligatures lookup 1-1" b.sup exclam.sup
EndChar
StartChar: sharp.sup
Encoding: 57356 57356 358
Width: 520
Flags: W
HStem: 520 21G<85 137>
VStem: 137 75<213 328 431 538 640 743> 308 75<271 387 489 597 699 801>
LayerCount: 3
Back
Fore
SplineSet
308 597 m 5
 212 564 l 5
 212 431 l 5
 308 464 l 5
 308 597 l 5
435 430 m 5
 383 412 l 5
 383 271 l 5
 308 271 l 5
 308 387 l 5
 212 353 l 5
 212 213 l 5
 137 213 l 5
 137 328 l 5
 85 310 l 5
 85 387 l 5
 137 405 l 5
 137 538 l 5
 85 520 l 5
 85 597 l 5
 137 615 l 5
 137 743 l 5
 212 743 l 5
 212 640 l 5
 308 674 l 5
 308 801 l 5
 383 801 l 5
 383 699 l 5
 435 717 l 5
 435 640 l 5
 383 622 l 5
 383 489 l 5
 435 507 l 5
 435 430 l 5
EndSplineSet
Layer: 2
LCarets2: 1 0
Ligature2: "'liga' Standard Ligatures lookup 1-1" numbersign.sup exclam.sup
EndChar
StartChar: M.sup
Encoding: 57365 57365 367
Width: 500
Flags: W
HStem: 710 20G<50 146.012 357.988 450>
VStem: 50 73<240 580> 373 77<240 580>
LayerCount: 3
Back
Fore
SplineSet
373 580 m 5
 371 580 l 5
 288 387 l 5
 208 387 l 5
 125 580 l 5
 123 580 l 5
 123 240 l 5
 50 240 l 5
 50 730 l 5
 137 730 l 5
 251 477 l 5
 253 477 l 5
 367 730 l 5
 450 730 l 5
 450 240 l 5
 373 240 l 5
 373 580 l 5
EndSplineSet
Layer: 2
EndChar
StartChar: o.sup
Encoding: 57366 57366 368
Width: 500
Flags: W
HStem: 230 65.2002<175.07 324.92> 596.8 65.2002<175.08 324.93>
VStem: 50 77<346.397 545.591> 373 77<346.409 545.603>
LayerCount: 3
Back
Fore
SplineSet
250 662 m 4
 373 662 450 590 450 446 c 4
 450 302 373 230 250 230 c 4
 127 230 50 302 50 446 c 4
 50 590 127 662 250 662 c 4
250 295.200195312 m 4
 345.557559256 295.200195312 373 360.293794314 373 446 c 4
 373 531.763903035 345.603366658 596.799804688 250 596.799804688 c 4
 154.442440744 596.799804688 127 531.706205686 127 446 c 4
 127 360.236096965 154.396633342 295.200195312 250 295.200195312 c 4
EndSplineSet
Layer: 2
EndChar
StartChar: oslash.sup
Encoding: 57367 57367 369
Width: 500
Flags: W
HStem: 230 60<172.954 328.686> 602 60<172.338 326.231>
VStem: 50 74<361.248 550.45> 376 74<340.719 529.483>
LayerCount: 3
Back
Fore
SplineSet
250 290 m 4
 291.911111111 290 321.73581078 301.418708664 342 323 c 4
 365.666666667 348.204918033 376 388.532786885 376 446 c 4
 376 479.795180723 374.666666667 507.445783133 363 531 c 5
 162 322 l 5
 180.786516854 299.6 210.449438202 290 250 290 c 4
70 226 m 5
 37 257 l 5
 86 308 l 5
 62 341.276595745 50 388.255319149 50 446 c 4
 50 579 117 662 250 662 c 4
 306.729927007 662 351.722627737 646.975609756 384 618 c 5
 430 666 l 5
 463 636 l 5
 415 585 l 5
 438.333333333 551.482269504 450 504.163120567 450 446 c 4
 450 312 383 230 250 230 c 4
 192.846715328 230 147.518248175 244.682926829 115 273 c 5
 70 226 l 5
338 569 m 5
 319.213483146 592.1 289.550561798 602 250 602 c 4
 208 602 176.021052632 590.064516129 157 565 c 4
 134.102666257 542.868354388 124 501.216 124 446 c 4
 124 411.6 125.181818182 383.270588235 137 360 c 5
 338 569 l 5
EndSplineSet
Layer: 2
Ligature2: "'liga' Standard Ligatures lookup 1-1" o.sup exclam.sup
EndChar
StartChar: minus.sup
Encoding: 57369 57369 371
Width: 500
Flags: W
HStem: 469 72<80 420>
LayerCount: 3
Back
Fore
SplineSet
80 469 m 5
 80 541 l 5
 420 541 l 5
 420 469 l 5
 80 469 l 5
EndSplineSet
Layer: 2
EndChar
StartChar: A.sup
Encoding: 57374 57374 376
Width: 500
Flags: W
HStem: 392 59<173 324>
LayerCount: 3
Back
Fore
SplineSet
324 451 m 1
 248 697 l 5
 173 451 l 1
 324 451 l 1
386 240 m 1
 340 392 l 1
 157 392 l 1
 111 240 l 1
 36 240 l 1
 204 770 l 1
 295 770 l 1
 464 240 l 1
 386 240 l 1
EndSplineSet
Layer: 2
EndChar
StartChar: s.sup
Encoding: 57377 57377 379
Width: 500
Flags: W
HStem: 230 63.5996<123.29 339.647> 598.4 63.5996<165.345 388.058>
VStem: 80 74<510.648 583.363> 356 74<311.403 387.909>
AnchorPoint: "bottom" 250 0 basechar 0
AnchorPoint: "top" 250 520 basechar 0
LayerCount: 3
Back
Fore
SplineSet
80 550 m 0
 80 626 149 662 250 662 c 0
 306 662 359 654.114285714 410 639 c 1
 410 569 l 1
 357 588.828170422 306 598.400390625 255 598.400390625 c 0
 187.666666667 598.400390625 154 582.487933433 154 550 c 0
 154 507.566666667 197.076318653 495.442258002 255 483 c 0
 367 454.76969697 430 438.163636364 430 346 c 0
 430 266 355 230 250 230 c 0
 193 230 138 238.775 85 257 c 5
 85 331 l 5
 137 306.301628833 189 293.599609375 240 293.599609375 c 0
 317.333333333 293.599609375 356 311.06640625 356 346 c 0
 356 393.084210526 312.018867925 402.052631579 245 417 c 0
 149 441.9375 80 464.38125 80 550 c 0
EndSplineSet
Layer: 2
EndChar
StartChar: numbersign.sup
Encoding: 57379 57379 381
Width: 520
Flags: W
HStem: 520 21G<85 137>
VStem: 137 75<213 328 431 538 640 743> 308 75<271 387 489 597 699 801>
LayerCount: 3
Back
Fore
SplineSet
308 597 m 1
 212 564 l 1
 212 431 l 1
 308 464 l 1
 308 597 l 1
435 430 m 1
 383 412 l 1
 383 271 l 1
 308 271 l 1
 308 387 l 1
 212 353 l 1
 212 213 l 1
 137 213 l 1
 137 328 l 1
 85 310 l 1
 85 387 l 1
 137 405 l 1
 137 538 l 1
 85 520 l 1
 85 597 l 1
 137 615 l 1
 137 743 l 1
 212 743 l 1
 212 640 l 1
 308 674 l 1
 308 801 l 1
 383 801 l 1
 383 699 l 1
 435 717 l 1
 435 640 l 1
 383 622 l 1
 383 489 l 1
 435 507 l 1
 435 430 l 1
EndSplineSet
Layer: 2
EndChar
StartChar: question.sup
Encoding: 57381 57381 383
Width: 500
Flags: W
HStem: 240 84<180 290> 711.2 70.7998<123.316 342.294>
VStem: 180 110<240 324> 195 80<412 478.466> 361 84<608.846 691.474>
LayerCount: 3
Back
Fore
SplineSet
445 654 m 0xd8
 445 598.884513678 400.564156127 569.692586111 360 537.200195312 c 4
 316.602539062 503.009004002 275 478.003518276 275 412 c 1
 195 412 l 1
 195 494.193862539 236.224157168 536.801184583 291 572.799804688 c 4
 325.25 595.308864792 361 615.66079178 361 654 c 0
 361 695.608605591 312.413085938 711.200195312 245 711.200195312 c 0
 188 711.200195312 128 696.249023438 65 665.599609375 c 1
 65 746 l 1
 127 770 190 782 255 782 c 0
 368.326171875 782 445 741.131835938 445 654 c 0xd8
180 240 m 1xe8
 180 324 l 1
 290 324 l 1
 290 240 l 1
 180 240 l 1xe8
EndSplineSet
Layer: 2
EndChar
StartChar: uniE097
Encoding: 57495 57495 393
Width: 1000
Flags: W
HStem: 232 59<128.607 316.998 424.437 547.907 678.566 837.79> 605 59<165.615 331.269 685.603 879.578>
VStem: 80 74<509.657 590.733> 332 72<311.525 392.571 452 599.276> 604 74<296.237 300 357.002 451 506.753 594.84> 856 74<309.746 391.461>
LayerCount: 3
Back
Fore
SplineSet
678 301 m 1
 702 295 725 291 748 291 c 0
 817.203883495 291 856 309.634615385 856 348 c 0
 856 396.323943662 813.00394736 403.85601504 753 421 c 0
 725 429 700 436 678 451 c 1
 678 301 l 1
332 595 m 5
 301 602 271 605 243 605 c 4
 184 605 154 587.333333333 154 552 c 0
 154 508.746268657 191.108764562 494.860853814 243 483 c 0
 278 475 307 467 332 452 c 1
 332 595 l 5
404 392 m 2
 404 307.053763441 434.768292683 292 491 292 c 0
 570.518518519 292 604 382.690909091 604 464 c 2
 604 656 l 1
 678 656 l 1
 701 662 728 664 757 664 c 0
 803 664 852 656 900 640 c 1
 900 575 l 1
 851 596 804 605 762 605 c 0
 687 605 678 581.613636364 678 556 c 0
 678 504.591549296 715.936050857 495.104395395 762 483 c 0
 867 455.408759124 930 438.656934307 930 348 c 0
 930 268 855 232 757 232 c 0
 731 232 705 235 678 240 c 1
 609 240 l 1
 607 300 l 1
 605 300 l 1
 584.21875 262 536.421875 232 472 232 c 0
 423 232 390 240 368 280 c 1
 337 240 291 232 239 232 c 0
 189 232 138 242 85 264 c 1
 85 333 l 1
 137 305 185 291 230 291 c 0
 296 291 333 309.634615385 333 348 c 0
 333 396.323943662 291.112992705 404.933375493 235 421 c 0
 149 445.62406015 80 467.293233083 80 552 c 0
 80 628 149 664 239 664 c 0
 269 664 301 662 332 656 c 1
 404 656 l 1
 404 392 l 2
EndSplineSet
Layer: 2
EndChar
StartChar: uniE0AD
Encoding: 57517 57517 394
Width: 1000
Flags: W
HStem: -10 67<140.486 308.591 434.272 538.156 678.566 825.621> 463 67<176.217 331.269 691.633 863.738>
VStem: 80 79<332.342 445.047> 332 77<82.375 193.343 261 455.517> 599 79<63.7205 75 139.577 267 330.609 448.74> 851 79<81.2331 192.638>
LayerCount: 3
Back
Fore
SplineSet
678 70 m 5
 702 62 725 57 748 57 c 4
 814 57 851 83 851 135 c 4
 851 198 810 209 753 230 c 4
 725.146677253 240.261750486 700 248.433333333 678 267 c 5
 678 70 l 5
332 450 m 5
 301 459 271 463 243 463 c 4
 187 463 159 439 159 390 c 4
 159 333 194 316 243 300 c 4
 278 289.785714286 307 279.357142857 332 261 c 5
 332 450 l 5
409 178 m 6
 409 79 438 61 491 61 c 4
 567 61 599 171 599 268 c 6
 599 520 l 5
 678 520 l 5
 701 527 728 530 757 530 c 4
 802.797385621 530 852.333333333 519.714285714 900 500 c 5
 900 425 l 5
 850.581081081 450.627906977 803.959459459 463 762 463 c 4
 687.119047619 463 678 430 678 395 c 4
 678 328 715.452380952 315 762 300 c 4
 867 266 930 246 930 135 c 4
 930 35 855 -10 757 -10 c 4
 731 -10 705 -6 678 0 c 5
 604 0 l 5
 602 75 l 5
 600 75 l 5
 580 27 534 -10 472 -10 c 4
 423 -10 390 0 368 50 c 5
 337 0 291 -10 239 -10 c 4
 189 -10 138 3 85 30 c 5
 85 110 l 5
 137 75 185 57 230 57 c 4
 296 57 333 83 333 135 c 4
 333 198 291 210 235 230 c 4
 149 260 80 287 80 390 c 4
 80 485 149 530 239 530 c 4
 269 530 301 527 332 520 c 5
 409 520 l 5
 409 178 l 6
EndSplineSet
Layer: 2
EndChar
StartChar: uniE0AE
Encoding: 57518 57518 395
Width: 500
Flags: W
HStem: 233 69<111.876 294.888> 492 65<246 306.627> 705 68<96 292>
VStem: 328 76<335.347 471.596>
LayerCount: 3
Back
Fore
SplineSet
229 233 m 4
 177 233 141 239 103 252 c 5
 103 327 l 5
 141 311 177 302 218 302 c 4
 286 302 328 335 328 397 c 4
 328 469 308 492 218 492 c 6
 147 492 l 5
 147 553 l 5
 292 705 l 5
 96 705 l 5
 96 773 l 5
 400 773 l 5
 400 711 l 5
 246 557 l 5
 370 553 404 500 404 396 c 4
 404 287 351 233 229 233 c 4
EndSplineSet
Layer: 2
EndChar
StartChar: uniE0AF
Encoding: 57519 57519 396
Width: 500
Flags: W
HStem: 0 21G<258 340> 710 20G<224.667 340>
VStem: 258 82<0 645>
LayerCount: 3
Back
Fore
SplineSet
258 0 m 5
 258 645 l 5
 256 646 l 5
 183 605 l 5
 183 685 l 5
 258 730 l 5
 340 730 l 5
 340 0 l 5
 258 0 l 5
EndSplineSet
Layer: 2
EndChar
StartChar: uniE0B0
Encoding: 57520 57520 397
Width: 467
Flags: W
HStem: -10 74<129.035 272.79> 355 72<231.5 282.237> 658 72<80 297>
VStem: 313 84<108.355 326.638>
LayerCount: 3
Back
Fore
SplineSet
214 64 m 4
 279 64 313 114 313 210 c 4
 313 320 295 355 214 355 c 6
 150 355 l 5
 150 427 l 5
 297 656 l 5
 297 658 l 5
 80 658 l 5
 80 730 l 5
 392 730 l 5
 392 658 l 5
 231.5 429 l 5
 231.5 427 l 5
 351 427 397 357 397 210 c 4
 397 63 332 -10 224.5 -10 c 4
 176 -10 138 0 90 20 c 5
 90 105 l 5
 141 78 175 64 214 64 c 4
EndSplineSet
Layer: 2
EndChar
StartChar: uniE0B1
Encoding: 57521 57521 398
Width: 1000
Flags: W
HStem: -10 75<435.053 537.439 707.636 805.903> -10 67<151.862 263.138> 0 21G<859.467 934> 275 60<182.597 313> 455 75<433.663 535.995 705.283 808.467> 463 67<103.512 291.613> 710 20G<583 662 855 934>
VStem: 55 75<77.9063 227.749> 313 77<123.313 275 335 400.433> 583 79<126.327 395.519 470 730> 855 79<0 75 126.327 395.519 445 730>
LayerCount: 3
Back
Fore
SplineSet
201 57 m 0x53e0
 288 57 313 141 313 240 c 2
 313 275 l 1
 273 275 l 2
 178 275 130 233 130 150 c 0
 130 93 155 57 201 57 c 0x53e0
662 260 m 0
 662 158 686 65 759 65 c 0
 854.020408163 65 855 228 855 265 c 0
 855 296 852.06122449 455 759 455 c 0x9be0
 694 455 662 390 662 260 c 0
855 445 m 1
 855 730 l 1
 934 730 l 1
 934 0 l 1
 860 0 l 1x3be0
 858 75 l 1
 856 75 l 1
 826.52173913 18 789.182608696 -10 743 -10 c 0
 677.803149606 -10 641.897637795 34.3888888889 623 84 c 1
 599.009264458 21.3333333333 546.767827063 -10 488 -10 c 0x93e0
 411.762237762 -10 371.230769231 31.4455445545 350 81 c 1
 321.014084507 19.7326732673 287.464788732 -10 203 -10 c 0
 112 -10 55 52 55 145 c 0
 55 280 151 335 273 335 c 2
 313 335 l 1
 313 360 l 2
 313 435 290.56097561 463 221 463 c 0
 171.781456954 463 113.61589404 445.75 80 433 c 1
 80 505 l 1
 115.483443709 517.142857143 169.913907285 530 221 530 c 0x57e0
 289.885496183 530 336.167938931 518 362 464 c 1
 388 512 425 530 471 530 c 0
 521.089285714 530 557.428571429 502 581 445 c 1
 583 445 l 1
 583 730 l 1
 662 730 l 1
 662 470 l 1
 665 470 l 1
 688.901234568 509.6 718.234567901 530 753 530 c 0
 798.535714286 530 831.571428571 502 853 445 c 1
 855 445 l 1
390 273 m 2
 390 248 l 2
 390 151 417 65 487 65 c 0x9be0
 582.020408163 65 583 228 583 265 c 0
 583 296 580.06122449 455 487 455 c 0
 425 455 390 394 390 273 c 2
EndSplineSet
Layer: 2
EndChar
StartChar: uniE0B3
Encoding: 57523 57523 399
Width: 1000
Flags: W
HStem: -10 75<398.25 480.305 633.772 716.217> -10 67<154.561 245.888> 0 21G<767.467 842> 275 60<176.215 283> 455 75<395.779 480.185 631.427 718.054> 463 67<115.188 267.134> 710 20G<519 598 763 842>
VStem: 55 79<77.2246 232.361> 283 78<111.375 275 335 412.178> 519 79<114.741 403.057 480 730> 763 79<0 75 122.39 395.519 445 730>
LayerCount: 3
Back
Fore
SplineSet
197 57 m 4x53e0
 265.842105263 57 283 141 283 240 c 2
 283 275 l 1
 249 275 l 2
 176.2265625 275 134 233 134 150 c 0
 134 93 157.507462687 57 197 57 c 4x53e0
598 260 m 0
 598 158 616.292682927 65 673 65 c 0
 761 65 763 228 763 265 c 0
 763 296 759 455 673 455 c 0x9be0
 622.695121951 455 598 390 598 260 c 0
763 445 m 1
 763 730 l 1
 842 730 l 1
 842 0 l 1
 768 0 l 1x3be0
 766 75 l 1
 764 75 l 1
 734 18 700 -10 660 -10 c 0
 605 -10 574 34 558 84 c 1
 537 21 492 -10 441 -10 c 0x93e0
 377.32231405 -10 344.05785124 31.4455445545 326 81 c 5
 300.809917355 19.7326732673 272.300409864 -10 199 -10 c 0
 117 -10 55 52 55 145 c 0
 55 280 146.743842365 335 249 335 c 2
 283 335 l 1
 283 360 l 2
 283 435 266.768115942 463 213 463 c 0
 169.517482517 463 113.482517483 442.3 80 427 c 1
 80 499 l 1
 115.342657343 514.057142857 168.587412587 530 213 530 c 0x57e0
 271.864864865 530 312.198198198 518 334 464 c 1
 356 512 388 530 427 530 c 0
 467.736842105 530 498.052631579 502 517 445 c 1
 519 445 l 1
 519 730 l 1
 598 730 l 1
 598 480 l 1
 600 480 l 1
 616.119402985 513 636.71641791 530 660 530 c 0
 703 530 737 502 761 445 c 1
 763 445 l 1
361 273 m 2
 361 248 l 2
 361 151 382.195121951 65 440 65 c 0x9be0
 517.119047619 65 519 228 519 265 c 0
 519 296 516.178571429 455 440 455 c 0
 388.93902439 455 361 394 361 273 c 2
EndSplineSet
Layer: 2
SplineSet
201 57 m 4
 277 57 313 141 313 240 c 6
 313 275 l 5
 273 275 l 6
 178 275 130 233 130 150 c 4
 130 93 155 57 201 57 c 4
664 260 m 4
 664 158 688 65 761 65 c 4
 858 65 859 228 859 265 c 4
 859 296 856 455 761 455 c 4
 696 455 664 390 664 260 c 4
859 445 m 5
 859 730 l 5
 938 730 l 5
 938 0 l 5
 864 0 l 5
 862 75 l 5
 860 75 l 5
 830 18 792 -10 745 -10 c 4
 679.803149606 -10 643.897637795 34.3888888889 625 84 c 5
 600.653846154 21.3333333333 547.638461538 -10 488 -10 c 4
 409 -10 367 36 345 91 c 5
 317 23 273 -10 203 -10 c 4
 117 -10 55 52 55 145 c 4
 55 280 151 335 273 335 c 6
 313 335 l 5
 313 360 l 6
 313 435 293 463 231 463 c 4
 189 463 116 440 80 423 c 5
 80 495 l 5
 118 512 187 530 231 530 c 4
 295 530 338 518 362 464 c 5
 388 512 425 530 471 530 c 4
 522 530 559 502 583 445 c 5
 585 445 l 5
 585 730 l 5
 664 730 l 5
 664 480 l 5
 667 480 l 5
 688.185185185 513 714.185185185 530 745 530 c 4
 796 530 833 502 857 445 c 5
 859 445 l 5
390 273 m 6
 390 248 l 6
 390 151 417 65 487 65 c 4
 584 65 585 228 585 265 c 4
 585 296 582 455 487 455 c 4
 425 455 390 394 390 273 c 6
EndSplineSet
EndChar
StartChar: uniE0CA
Encoding: 57546 57546 400
Width: 1000
Flags: W
HStem: 232 60<142.896 268.837 428.685 543.104 701.076 815.023> 450 53<163.777 315> 604 60<82.06 299.168 427.052 543.171 698.485 816.353>
VStem: 55 70<310.335 415.968> 315 72<343.915 450 503 560.065> 585 74<341.062 554.641 616 770> 860 74<240 300 341.062 553.323 596 770>
LayerCount: 3
Back
Fore
SplineSet
201 290.599609375 m 0
 278.357142857 290.599609375 315 355.504706711 315 432 c 2
 315 450 l 1
 273 450 l 2
 174.678321678 450 125 421.44 125 365 c 0
 125 319.399760585 151.76056338 290.599609375 201 290.599609375 c 0
659 448 m 0
 659 366.4 683.742268041 292 759 292 c 0
 858.969387755 292 860 422.4 860 452 c 0
 860 476.8 856.908163265 604 759 604 c 0
 691.989690722 604 659 552 659 448 c 0
860 596 m 1
 860 770 l 1
 934 770 l 1
 934 240 l 1
 865 240 l 1
 863 300 l 1
 861 300 l 1
 830.217391304 254.4 791.226086957 232 743 232 c 0
 677.803149606 232 641.897637795 267.511203342 623 307.200195312 c 1
 599.009264458 257.066731771 546.767827063 232 488 232 c 0
 409 232 367 268.799911046 345 312.799804688 c 1
 317 258.399936185 273 232 203 232 c 0
 117 232 55 283.6 55 361 c 0
 55 461.894736842 151 503 273 503 c 2
 315 503 l 1
 315 528 l 2
 315 584.359507737 292.073170732 605.400390625 221 605.400390625 c 4
 172.443708609 605.400390625 122.953642384 597.750390625 80 583.400390625 c 1
 80 646 l 1
 124.821192053 659.742857143 170.57615894 664 221 664 c 4
 289.885496183 664 336.167938931 654.400035511 362 611.200195312 c 1
 388 649.600053267 425 664 471 664 c 0
 522 664 559 641.6 583 596 c 1
 585 596 l 1
 585 770 l 1
 659 770 l 1
 659 616 l 1
 662 616 l 1
 686.716049383 647.68 717.049382716 664 753 664 c 0
 800.8125 664 835.5 641.6 858 596 c 1
 860 596 l 1
387 458.400390625 m 2
 387 438.400390625 l 2
 387 360.800183572 414.835051546 292 487 292 c 0
 584 292 585 422.4 585 452 c 0
 585 476.8 582 604 487 604 c 0
 423.082474227 604 387 555.200130924 387 458.400390625 c 2
EndSplineSet
Layer: 2
EndChar
StartChar: uniE0CB
Encoding: 57547 57547 401
Width: 1000
Flags: W
HStem: 232 60<141.865 251.173 391.326 486.544 628.539 721.972> 450 48<161.366 288> 604 60<92.0343 273.332 390.87 486.905 626.082 723.593>
VStem: 55 70<308.269 417.563> 288 70<335.06 450 498 567.5> 522 74<334.82 562.445 624 770> 763 74<240 300 337.912 556.415 596 770>
LayerCount: 3
Back
Fore
SplineSet
197 290.599609375 m 0
 259.263157895 290.599609375 288 355.504706711 288 432 c 6
 288 450 l 5
 254 450 l 6
 172.3671875 450 125 421.44 125 365 c 0
 125 319.399760585 151.865671642 290.599609375 197 290.599609375 c 0
596 448 m 0
 596 366.4 614.780487805 292 673 292 c 0
 761 292 763 422.4 763 452 c 0
 763 476.8 759 604 673 604 c 0
 621.353658537 604 596 552 596 448 c 0
763 596 m 1
 763 770 l 1
 837 770 l 1
 837 240 l 1
 768 240 l 1
 766 300 l 1
 764 300 l 1
 734 254.4 700 232 660 232 c 0
 605 232 574 267.200091423 558 307.200195312 c 1
 537 256.800064412 492 232 441 232 c 0
 374 232 339 268.799911046 320 312.799804688 c 1
 296 258.399936185 259 232 199 232 c 0
 117 232 55 283.6 55 361 c 0
 55 458.342105263 149.108374384 498 254 498 c 6
 288 498 l 5
 288 528 l 6
 288 580.718731038 270.608695652 600.400390625 213 600.400390625 c 0
 169.517482517 600.400390625 121.482517483 591.750390625 80 578.400390625 c 1
 80 646 l 1
 123.342657343 658.742857143 168.587412587 664 213 664 c 0
 271.864864865 664 312.198198198 654.400035511 334 611.200195312 c 1
 356 649.600053267 388 664 427 664 c 0
 469.094736842 664 500.421052632 641.6 520 596 c 1
 522 596 l 1
 522 770 l 1
 596 770 l 1
 596 624 l 1
 598 624 l 1
 614.656716418 650.4 635.940298507 664 660 664 c 0
 703 664 737 641.6 761 596 c 1
 763 596 l 1
358 458.400390625 m 2
 358 438.400390625 l 2
 358 360.800183572 380 292 440 292 c 0
 520.047619048 292 522 422.4 522 452 c 0
 522 476.8 519.071428571 604 440 604 c 0
 387 604 358 555.200130924 358 458.400390625 c 2
EndSplineSet
Layer: 2
EndChar
StartChar: uniFE19
Encoding: 65049 65049 113
Width: 1000
Flags: W
HStem: -43 140<453 547> 290 140<453 547> 623 140<453 547>
VStem: 453 94<-43 97 290 430 623 763>
CounterMasks: 1 e0
LayerCount: 3
Back
Fore
SplineSet
453 -43 m 1
 453 97 l 1
 547 97 l 1
 547 -43 l 1
 453 -43 l 1
453 290 m 1
 453 430 l 1
 547 430 l 1
 547 290 l 1
 453 290 l 1
453 623 m 1
 453 763 l 1
 547 763 l 1
 547 623 l 1
 453 623 l 1
EndSplineSet
Layer: 2
EndChar
StartChar: uniFE30
Encoding: 65072 65072 114
Width: 1000
Flags: W
HStem: 40 140<453 547> 540 140<453 547>
VStem: 453 94<40 180 540 680>
LayerCount: 3
Back
Fore
SplineSet
453 540 m 1
 453 680 l 1
 547 680 l 1
 547 540 l 1
 453 540 l 1
453 40 m 1
 453 180 l 1
 547 180 l 1
 547 40 l 1
 453 40 l 1
EndSplineSet
Layer: 2
EndChar
StartChar: doublesharp
Encoding: 119082 119082 297
Width: 500
Flags: W
HStem: 122 143<55 187.458 312.542 445> 265 104<208.542 291.458> 369 143<55 187.458 312.542 445>
VStem: 55 143<122 254.458 379.542 512> 198 104<275.542 358.458> 302 143<122 254.458 379.542 512>
LayerCount: 3
Back
SplineSet
100 167 m 5
 100 467 l 5
 400 467 l 5
 400 167 l 5
 100 167 l 5
EndSplineSet
Fore
SplineSet
55 122 m 5x94
 55 265 l 5x94
 146 265 l 6
 174 265 198 289 198 317 c 4x88
 198 345 174 369 146 369 c 6
 55 369 l 5
 55 512 l 5
 198 512 l 5xb0
 198 421 l 6
 198 393 222 369 250 369 c 4x50
 278 369 302 393 302 421 c 6
 302 512 l 5
 445 512 l 5
 445 369 l 5x34
 354 369 l 6
 326 369 302 345 302 317 c 4x28
 302 289 326 265 354 265 c 6
 445 265 l 5
 445 122 l 5
 302 122 l 5xa4
 302 213 l 6
 302 241 278 265 250 265 c 4x44
 222 265 198 241 198 213 c 6
 198 122 l 5
 55 122 l 5x94
EndSplineSet
Layer: 2
SplineSet
330 317 m 5
 687 317 l 1029
-187 317 m 5
 170 317 l 1029
250 237 m 5
 250 -120 l 1029
250 754 m 5
 250 397 l 1029
100 167 m 5
 100 467 l 5
 400 467 l 5
 400 167 l 5
 100 167 l 5
EndSplineSet
Substitution2: "'sups' Superscript lookup 0-1" doublesharp.sup
Ligature2: "'liga' Standard Ligatures lookup 0-1" numbersign numbersign exclam
EndChar
StartChar: doubleflat
Encoding: 119083 119083 296
Width: 500
Flags: W
HStem: 407 72<154.387 224.925 339.387 409.022> 407 55<204.561 224.724> 710 20G<54 130 239 315>
VStem: 54 76<100 367.823 423 730> 239 76<100 109 211.531 367.823 462 730> 424 76<212.098 394.193>
CounterMasks: 1 1c
LayerCount: 3
Back
SplineSet
389.092773438 478.501953125 m 4
 459.29296875 478.501953125 500.006835938 409.874023438 500.006835938 327.759765625 c 4
 500.006835938 235.365234375 465.120117188 148.876953125 422 96 c 4
 377.331054688 41.2236328125 303.8828125 8.2177734375 239 -13.005859375 c 5
 239 98.484375 l 6
 238.334960938 97.6484375 237.668945312 96.8203125 237 96 c 4
 192.331054688 41.2236328125 118.8828125 8.2177734375 54 -13.005859375 c 5
 54 730 l 5
 130 730 l 5
 130 423 l 5
 133 422.986328125 l 5
 154.146484375 470.18359375 178.504882812 478.501953125 204.092773438 478.501953125 c 4
 216.701171875 478.501953125 228.358398438 476.288085938 239 472.1796875 c 5
 239 730 l 5
 315 730 l 5
 315 423 l 5
 318 422.986328125 l 5
 339.146484375 470.18359375 363.504882812 478.501953125 389.092773438 478.501953125 c 4
424.006835938 327.759765625 m 4
 424.006835938 366.5546875 409.6953125 406.501953125 374.092773438 406.501953125 c 4
 350.569335938 406.501953125 334.681640625 387.638671875 326.474609375 368.61328125 c 4
 315.868164062 344.02734375 315 311.715820312 315 275 c 4
 315 216.551757812 315 158.102539062 315 99.654296875 c 5
 345.869140625 119.12890625 368.97265625 143.400390625 386.319335938 176.116210938 c 4
 410.801757812 222.2890625 424.006835938 274.821289062 424.006835938 327.759765625 c 4
239 329.227539062 m 6
 238.642578125 367.555664062 224.24609375 406.501953125 189.092773438 406.501953125 c 4
 165.569335938 406.501953125 149.681640625 387.638671875 141.474609375 368.61328125 c 4
 130.868164062 344.02734375 130 311.715820312 130 275 c 4
 130 216.551757812 130 158.102539062 130 99.654296875 c 5
 160.869140625 119.12890625 183.97265625 143.400390625 201.319335938 176.116210938 c 4
 225.48046875 221.682617188 238.658203125 273.44140625 239 325.672851562 c 6
 239 329.227539062 l 6
EndSplineSet
Fore
SplineSet
389 479 m 0xbc
 459 479 500 410 500 328 c 0
 500 236 465.217773438 148.822265625 422 96 c 0
 377 41 304 8 239 -13 c 1
 239 109 l 1
 236 109 l 1
 201 41.421875 119 9.181640625 54 -13 c 1
 54 730 l 1
 130 730 l 1
 130 423 l 1
 133 423 l 1
 154 470 178 479 204 479 c 0xbc
 216 479 226 473 236 462 c 1
 239 462 l 1x7c
 239 730 l 1
 315 730 l 1
 315 423 l 1
 318 423 l 1
 339 470 363 479 389 479 c 0xbc
424 328 m 0
 424 367 410 407 374 407 c 0
 350 407 334.302734375 387.870117188 326 369 c 0
 315 344 315 312 315 275 c 0
 315 217 315 158 315 100 c 1
 346 119 368.829101562 143.088867188 386 176 c 0
 410 222 424 275 424 328 c 0
239 329 m 2
 239 367 224 407 189 407 c 0
 165 407 149.302734375 387.870117188 141 369 c 0
 130 344 130 312 130 275 c 0
 130 217 130 158 130 100 c 1
 161 119 183.829101562 143.088867188 201 176 c 0
 225 222 239 274 239 326 c 2
 239 329 l 2
EndSplineSet
Layer: 2
SplineSet
92 730 m 1
 92 133 l 1025
  Spiro
    92 730 {
    92 133 v
    0 0 z
  EndSpiro
92 37.5 m 1
 109.5 46.5 l 2
 135.08203125 59.65625 160.512695312 73.654296875 182.23828125 92.509765625 c 0
 203.963867188 111.366210938 221.80078125 134.541015625 235.276367188 159.95703125 c 0
 262.465820312 211.236328125 277.006835938 269.192382812 277.006835938 327.759765625 c 0
 277.006835938 342.637695312 275.602539062 357.57421875 271.748046875 371.938476562 c 0
 267.741210938 386.870117188 260.965820312 401.181640625 251 413 c 0
 235.798828125 431.025390625 212.841796875 442.500976562 189.092773438 442.500976562 c 0
 171.068359375 442.500976562 153.2265625 436.068359375 138.870117188 425.1640625 c 0
 124.405273438 414.178710938 113.493164062 398.911132812 106.298828125 382.233398438 c 0
 91.9091796875 348.877929688 92 311.327148438 92 275 c 2
 92 37.5 l 1
  Spiro
    92 37.5 v
    109.5 46.5 ]
    277 326 o
    251 413 o
    189.5 442.5 o
    92 275 [
    0 0 z
  EndSpiro
EndSplineSet
Substitution2: "'sups' Superscript lookup 0-1" doubleflat.sup
Ligature2: "'liga' Standard Ligatures lookup 0-1" b b exclam
EndChar
StartChar: Delta.sup
Encoding: 1114137 -1 359
Width: 500
Flags: W
HStem: 240 70<136 360>
LayerCount: 3
Back
Fore
SplineSet
249 592 m 1
 247 592 l 1
 136 310 l 5
 360 310 l 1
 249 592 l 1
30 240 m 1
 200 662 l 1
 300 662 l 1
 470 240 l 1
 30 240 l 1
EndSplineSet
Layer: 2
Ligature2: "'liga' Standard Ligatures lookup 0-1" A.sup exclam.sup
EndChar
StartChar: a.sup
Encoding: 1114140 -1 362
Width: 500
Flags: W
HStem: 233 56<187.672 286.439> 432 60<207.441 321> 577 56<149.052 310.581>
VStem: 108 70<297.665 404.94> 321 71<240 280 326.999 432 492 567.123>
AnchorPoint: "ogonoek" 425 0 basechar 0
AnchorPoint: "top" 250 520 basechar 0
LayerCount: 3
Back
Fore
SplineSet
258 633 m 4
 353 633 392 600.228571429 392 485 c 0
 392 240 l 1
 325 240 l 1
 324 280 l 1
 300 248 265 233 221 233 c 0
 152 233 108 281 108 350 c 0
 108 451 187 492 294 492 c 0
 321 492 l 1
 321 553.818181818 314 577 258 577 c 4
 213 577 155 559 127 547 c 5
 127 608 l 5
 158 620 216 633 258 633 c 4
178 349 m 0
 178 311 196 289 232 289 c 0
 292 289 321 343 321 414 c 0
 321 432 l 1
 294 432 l 0
 214 432 178 404 178 349 c 0
EndSplineSet
Layer: 2
EndChar
StartChar: add11.sup
Encoding: 1114132 -1 353
Width: 1000
Flags: HW
HStem: 232 56<89.6543 168.05 266.013 326.369 419.929 480.664> 439 44<103.722 189> 568 57<47.8571 182.921 264.749 326.562 418.753 480.574>
VStem: 25 57<290.552 417.651> 189 55<311.174 439 483 547.828> 346 55<305.798 549.984 597 770> 502 56<239 277 308.886 547.886 578 770> 689 80<240 686> 899 80<240 686>
LayerCount: 3
Back
Fore
SplineSet
979 240 m 1
 899 240 l 1
 899 686 l 1
 842 653 l 1
 842 731 l 1
 906 770 l 1
 979 770 l 1
 979 240 l 1
769 240 m 1
 689 240 l 1
 689 686 l 1
 632 653 l 1
 632 731 l 1
 696 770 l 1
 769 770 l 1
 769 240 l 1
EndSplineSet
Refer: 355 416 S 1 0 0 1 0 0 2
Layer: 2
LCarets2: 4 0 0 0 0
Ligature2: "'liga' Standard Ligatures lookup 0-1" a.sup d.sup d.sup one.sup one.sup
EndChar
StartChar: d.sup
Encoding: 1114141 -1 365
Width: 500
Flags: W
HStem: 233 62<196.061 288.763> 563 66<194.132 288.485>
VStem: 93 72<327.716 533.448> 318 73<240 281 328.165 530.609 585 770>
LayerCount: 3
Back
Fore
SplineSet
227 629 m 4
 266 629 296 614 318 585 c 5
 318 770 l 5
 391 770 l 5
 391 240 l 5
 322 240 l 5
 321 281 l 5
 296 249 264 233 227 233 c 4
 91 233 93 408 93 431 c 4
 93 559 136 629 227 629 c 4
242 563 m 4
 193 563 165 523 165 429 c 4
 165 355 186 295 242 295 c 4
 316 295 318 403 318 432 c 4
 318 457 315 563 242 563 c 4
EndSplineSet
Layer: 2
EndChar
StartChar: doubleflat.sup
Encoding: 1114127 -1 348
Width: 500
Flags: W
HStem: 525 68<135.001 209.327 302.641 375.026>
VStem: 50 75<332 517.062 569 770> 215 75<389.139 514.038 577 770> 380 75<389.858 520.859>
CounterMasks: 1 70
LayerCount: 3
Back
Fore
SplineSet
290 576 m 5
 313 591 334 594 354 594 c 4
 420 594 455 539 455 479 c 4
 455 308.114257812 344.09375 261.7734375 205 227 c 5
 205 300 l 5
 159.69921875 258.309570312 101.767578125 242.928710938 50 227 c 5
 50 770 l 5
 125 770 l 5
 125 569 l 5
 144 587.947265625 164 593 184 593 c 4
 194.333007812 593 208.733398438 585.272460938 215 577 c 5
 215 770 l 5
 290 770 l 5
 290 576 l 5
290 332 m 5
 346 358 380 401 380 478 c 4
 380 506 367 525 344 525 c 4
 295 525 290 478 290 440 c 6
 290 332 l 5
125 332 m 5
 175.561523438 359.92578125 215 391.07421875 215 477 c 4
 215 508 197.584960938 525 173 525 c 4
 127 525 125 478 125 440 c 6
 125 332 l 5
EndSplineSet
Layer: 2
EndChar
StartChar: doublesharp.sup
Encoding: 1114126 -1 347
Width: 500
Flags: W
HStem: 364 115<98 201.548 297.452 401> 467 76<222.741 276.313> 531 116<98 201.548 297.452 401>
VStem: 98 124<364 466.313 543.741 647> 202 95<479.684 530.316> 277 124<364 466.455 543.588 647>
LayerCount: 3
Back
Fore
SplineSet
222 364 m 5x94
 98 364 l 5
 98 479 l 5x94
 174 479 l 4
 189 479 202 491 202 505 c 4x88
 202 519 189 531 174 531 c 4
 98 531 l 5
 98 647 l 5
 222 647 l 5xb0
 222 571 l 4
 222 556 235 543 250 543 c 4x50
 265 543 277 556 277 571 c 4
 277 647 l 5
 401 647 l 5
 401 531 l 5x34
 325 531 l 4
 310 531 297 519 297 505 c 4x28
 297 491 310 479 325 479 c 4
 401 479 l 5
 401 364 l 5
 277 364 l 5xa4
 277 440 l 4
 277 455 265 467 250 467 c 4x44
 235 467 222 455 222 440 c 4
 222 364 l 5x94
EndSplineSet
Layer: 2
EndChar
StartChar: eight.sup
Encoding: 1114121 -1 342
Width: 500
Flags: W
HStem: 230 61<193.759 306.654> 719 61<197.297 303.926>
VStem: 93 76<316.029 452.254> 104 79<586.897 703.843> 320 76<585.727 703.445> 328 79<312.427 447.727>
LayerCount: 3
Back
Fore
SplineSet
250 556 m 5xd8
 292 567 320 600 320 652 c 4
 320 692 294 719 254 719 c 4
 209 719 183 696 183 652 c 4
 183 603 212 566 250 556 c 5xd8
326 523 m 5
 376 497 407 447 407 381 c 4
 407 285 349 230 250 230 c 4
 151 230 93 285 93 381 c 4xe4
 93 447 128 495 175 520 c 5
 137 545 104 593 104 647 c 4
 104 732 163 780 250 780 c 4
 337 780 396 731 396 647 c 4
 396 593 364 546 326 523 c 5
246 484 m 5
 194 469 169 442 169 377 c 4
 169 323 200 291 254 291 c 4
 303 291 328 324 328 377 c 4
 328 436 300 470 246 484 c 5
EndSplineSet
Layer: 2
EndChar
StartChar: exclam.sup
Encoding: 1114142 -1 366
Width: 500
Flags: W
HStem: 240 109<202 297>
VStem: 202 95<240 349 541.545 770> 213 73<411 725.125>
LayerCount: 3
Back
Fore
SplineSet
213 411 m 5xa0
 206 770 l 1
 294 770 l 1
 286 411 l 5
 213 411 l 5xa0
297 240 m 1xc0
 202 240 l 1
 202 349 l 1
 297 349 l 1
 297 240 l 1xc0
EndSplineSet
Layer: 2
EndChar
StartChar: four.sup
Encoding: 1114117 -1 338
Width: 500
Flags: W
HStem: 362 67<153 284 364 426>
VStem: 284 80<240 362 432 660>
LayerCount: 3
Back
Fore
SplineSet
284 429 m 1
 284 660 l 1
 153 429 l 5
 284 429 l 1
284 240 m 1
 284 362 l 1
 78 362 l 1
 78 432 l 1
 275 770 l 1
 364 770 l 1
 364 432 l 1
 426 432 l 1
 426 362 l 1
 364 362 l 1
 364 240 l 1
 284 240 l 1
EndSplineSet
Layer: 2
EndChar
StartChar: i.liga
Encoding: 1114112 -1 295
Width: 500
Flags: W
HStem: -220 21G<212 288>
VStem: 212 76<-220 810>
LayerCount: 3
Back
Fore
SplineSet
212 -220 m 1
 212 810 l 1
 288 810 l 1
 288 -220 l 1
 212 -220 l 1
EndSplineSet
Layer: 2
Ligature2: "'liga' Standard Ligatures lookup 0-1" l l l
EndChar
StartChar: nine.sup
Encoding: 1114122 -1 343
Width: 500
Flags: W
HStem: 230 72<137.202 278.606> 410 68<201.152 290.539> 717 63<201.079 291.772>
VStem: 102 80<495.954 699.578> 312 82<425.845 697.641>
LayerCount: 3
Back
Fore
SplineSet
248 780 m 4
 327 780 361 746 379 682 c 4
 389 647 394 598 394 537 c 4
 394 462 387 402 374 356 c 4
 353 280 318 230 226 230 c 4
 192 230 161 237 132 247 c 5
 132 326 l 5
 158 314 190 302 219 302 c 4
 291 302 301 349 309 434 c 5
 286 418 263 410 237 410 c 4
 132 410 102 494 102 597 c 4
 102 704 139 780 248 780 c 4
248 717 m 4
 192 717 182 674 182 600 c 4
 182 526 194 478 244 478 c 4
 295 478 312 524 312 593 c 4
 312 667 301 717 248 717 c 4
EndSplineSet
Layer: 2
EndChar
StartChar: normal.sup
Encoding: 1114124 -1 345
Width: 500
Flags: W
VStem: 126 75<432 566 637 770> 300 75<240 392 465 599>
LayerCount: 3
Back
Fore
SplineSet
201 432 m 1
 300 465 l 1
 300 599 l 1
 201 566 l 1
 201 432 l 1
201 770 m 5
 201 637 l 1
 375 692 l 1
 375 240 l 1
 300 240 l 1
 300 392 l 1
 126 337 l 1
 126 770 l 5
 201 770 l 5
EndSplineSet
Layer: 2
EndChar
StartChar: plus.sup
Encoding: 1114139 -1 361
Width: 500
Flags: W
HStem: 471 68<70 211 289 430>
VStem: 211 78<310 471 539 700>
LayerCount: 3
Back
Fore
SplineSet
289 700 m 1
 289 539 l 1
 430 539 l 1
 430 471 l 1
 289 471 l 1
 289 310 l 1
 211 310 l 1
 211 471 l 1
 70 471 l 5
 70 539 l 5
 211 539 l 1
 211 700 l 1
 289 700 l 1
EndSplineSet
Layer: 2
EndChar
StartChar: six.sup
Encoding: 1114119 -1 340
Width: 500
Flags: W
HStem: 230 73<207.053 298.969> 532 71<207.466 299.726> 707 73<221.746 363.138>
VStem: 107 81<320.446 586.936> 318 80<320.626 516.388>
LayerCount: 3
Back
Fore
SplineSet
398 422 m 4
 398 305 360 230 252 230 c 4
 175 230 141.508789062 265.153320312 122 329 c 4
 111 365 107 412 107 473 c 4
 107 548 113.0234375 607.993164062 126 654 c 4
 148 732 184 780 274 780 c 4
 309 780 338 773 369 762 c 5
 369 682 l 5
 344 698 315 707 282 707 c 4
 208 707 199 659 191 578 c 5
 214 595 237 603 263 603 c 4
 365 603 398 532 398 422 c 4
252 303 m 4
 309 303 318 348 318 422 c 4
 318 489 307 532 256 532 c 4
 212 532 188 503 188 429 c 4
 188 357 195 303 252 303 c 4
EndSplineSet
Layer: 2
EndChar
StartChar: u.sup
Encoding: 1114147 -1 383
Width: 500
Flags: W
HStem: 233 54<168.712 282.122>
VStem: 85 69<301.712 620> 328 70<240 295 340.297 620>
AnchorPoint: "ogonoek" 426 0 basechar 0
AnchorPoint: "top" 245 520 basechar 0
LayerCount: 3
Back
Fore
SplineSet
211 233 m 4
 112 233 85 281 85 379 c 4
 85 620 l 5
 154 620 l 5
 154 385 l 4
 154 322 158 287 228 287 c 4
 297 287 328 365 328 436 c 4
 328 620 l 5
 398 620 l 5
 398 240 l 5
 332 240 l 5
 330 295 l 5
 310 260 268 233 211 233 c 4
EndSplineSet
Layer: 2
EndChar
StartChar: zero.sup
Encoding: 1114113 -1 334
Width: 500
Flags: W
HStem: 230 72<208.545 291.455> 708 72<209.007 290.993>
VStem: 101 77<338.718 671.861> 322 77<338.718 671.861>
LayerCount: 3
Back
SplineSet
369 667 m 4
 400 602 399 507 399 464 c 4
 399 421 401 327 369 262 c 4
 348 219 310 190 250 190 c 4
 190 190 152 218 131 262 c 4
 100 327 101 421 101 464 c 4
 101 507 100 602 131 667 c 4
 152 711 190 740 250 740 c 4
 310 740 348 711 369 667 c 4
311 330 m 4
 322 382 322 432 322 464 c 4
 322 496 322 547 311 599 c 4
 302 641 282 668 250 668 c 4
 218 668 198 641 189 599 c 4
 178 547 178 496 178 464 c 4
 178 432 177 382 189 330 c 4
 198 288 218 262 250 262 c 4
 282 262 302 288 311 330 c 4
EndSplineSet
Fore
SplineSet
250 780 m 0
 310 780 348.306640625 751.145507812 369 707 c 0
 399 643 399 547 399 504 c 0
 399 461 399 365 369 302 c 0
 348.42578125 258.794921875 310 230 250 230 c 0
 190 230 151.57421875 258.794921875 131 302 c 0
 101 365 101 461 101 504 c 0
 101 547 101 643 131 707 c 0
 151.693359375 751.145507812 190 780 250 780 c 0
250 708 m 0
 218 708 198 681 189 639 c 0
 178 587 178 536 178 504 c 0
 178 472 178 422 189 370 c 0
 198 328 218 302 250 302 c 0
 282 302 302 328 311 370 c 0
 322 422 322 472 322 504 c 0
 322 536 322 587 311 639 c 0
 302 681 282 708 250 708 c 0
EndSplineSet
Layer: 2
EndChar
